/* XPM */
static char *result[] = {
/* columns rows colors chars-per-pixel */
"64 64 7 1 ",
"  c #D32F2F",
". c #BF6F00",
"X c #4CAF50",
"o c #BF8F00",
"O c #FF9800",
"+ c #FFC107",
"@ c None",
/* pixels */
"@@@@@@@@@@@@@@@@@@@@@@@@@@@@@@@@@@@@@@@@@@@@@@@@@@@@@@@@@@@@@@@@",
"@@@@@@@@@@@@@@@@@@@@@@@@@@@@@@@@@@@@@@@@@@@@@@@@@@@@@@@@@@@@@@@@",
"@@@@@@@@@@@@@@@@@@@@@@@@@@@@@@@@@@@@@@@@@@@@@@@@@@@@@@@@@@@@@@@@",
"@@@@@@@@@@@@@@@@@@@@@@@@@OOOOOOOOOOOOO@@@@@@@@@@@@@@@@@@@@@@@@@@",
"@@@@@@@@@@@@@@@@@@@@@@@OOOOOOOOOOOOOOOOO@@@@@@@@@@@@@@@@@@@@@@@@",
"@@@@@@@@@@@@@@@@@@@@@OOOOOOOOOOOOOOOOOOO@@@@@@@@@@@@@@@@@@@@@@@@",
"@@@@@@@@@@@@@@@@@@@OOOOOOOOOOOOOOOOOOOOO@@@@@@@@@@@@@@@@@@@@@@@@",
"@@@@@@@@@@@@@@@@@@OOOOOOOOOOOOOOOOOOOOOO@@@@@@@@@@@@@@@@@@@@@@@@",
"@@@@@@@@@@@@@@@@OOOOOOOOOOOOOOOOOOOO....@@@@@@@@@@@@@@@@@@@@@@@@",
"@@@@@@@@@@@@@@OOOOOOOOOOOOOOO..........@@@@@@@@@@@@@@@@@@@@@@@@@",
"@@@@@@@@@@@@@OOOOOOOOOOOOO...........++++++@@@@@@@@@@@@@@@@@@@@@",
"@@@@@@@@@@@@OOOOOOOOOOOO......++++++++++++  @@@@@@@@@@@@@@@@@@@@",
"@@@@@@@@@@@@OOOOOOOOOOO...++++++++++++++X     @@@@@@@@@@@@@@@@@@",
"@@@@@@@@@@@OOOOOOOOOO....++++++++++++++X+      @@@@@@@@@@@@@@@@@",
"@@@@@@@@@@OOOOOOOOO....++++++++++X+++++++       @@@@@@@@@@@@@@@@",
"@@@@@@@@@@OOOOOOOO...+++++++++++++++++++         @@@@@@@@@@@@@@@",
"@@@@@@@@@OOOOOOOOO..++++++++++++++++++++         @@@@@@@@@@@@@@@",
"@@@@@@@@@OOOOOOOO..+++++++++++++++++++++          @@@@@@@@@@@@@@",
"@@@@@@@@@OOOOOOO...+++++++X+++++++++++++          +@@@@@@@@@@@@@",
"@@@@@@@@@OOOOOOO..+++++++++++++++++++++o      X oo+@@@@@@@@@@@@@",
"@@@@@@@@@OOOOOO..+++++++++++++++++++++++ooo    o++++@@@@@@@@@@@@",
"@@@@@@@@@OOOOOO..++++++++++++++++++++++++++    o++++@@@@@@@@@@@@",
"@@@@@@@@OOOOOOO..+++++++++++++X++++++++++++ooooo++++@@@@@@@@@@@@",
"@@@@@@@OOOOOOOO..++++++++++++++++++++++++++++++++++++@@@@@@@@@@@",
"@@@@@@@OOOOOOOO..++++++    ++++++++++++++++++++++++++@@@@@@@@@@@",
"@@@@@@@OOOOOOO..+++++++    +++++++++++X++++++++++++++@@@@@@@@@@@",
"@@@@@@@OOOOOOO..++++       ++++++++++++++++++++++++++@@@@@@@@@@@",
"@@@@@@@OOOOOO..++++          ++++++++++++++++++++X+++@@@@@@@@@@@",
"@@@@@@@OOOOOO..++++          ++++++++X+++++++++++X++++@@@@@@@@@@",
"@@@@@@@OOOOOOO..+++          +++++++   +++++++++++++++@@@@@@@@@@",
"@@@@@@@OOOOOOO..+++          +++++       +++++++++++++@@@@@@@@@@",
"@@@@@@@OOOOOOO..+++o        o++++X        ++++++++++++@@@@@@@@@@",
"@@@@@@@OOOOOOO..+++o        o++++X        ++++++++++++@@@@@@@@@@",
"@@@@@@@OOOOOOO..++++      ooo+++++         +++++++++++@@@@@@@@@@",
"@@@@@@@OOOOOO...++++oo    ++++++           +++++++++++@@@@@@@@@@",
"@@@@@@@OOOOOO...++X+++oooo+++++++          +++++++++++@@@@@@@@@@",
"@@@@@@@OOOO....+++++++++++++++++           +++++++++++@@@@@@@@@@",
"@@@@@@@..OO....++++++++++++++++++          ++++++++++++@@@@@@@@@",
"@@@@@@@..OO..++++++++++++++++++++         o++++++++++++@@@@@@@@@",
"@@@@@@@..OO..ooo+++++++++++X+++++++X    oo+++++++++++X+@@@@@@@@@",
"@@@@@@@......ooooooo++++++++++++++++ o oo++++++++++++++@@@@@@@@@",
"@@@@@@@......@@o@ooooo++++++++++++++o+o++++++++++++++++@@@@@@@@@",
"@@@@@@@@@@@@@@@@@@@@oo++oo+++++++++++++++++++++++++++++@@@@@@@@@",
"@@@@@@@@@@@@@@@@@@@@@@++ooo++++++++++++++++++++++++++++@@@@@@@@@",
"@@@@@@@@@@@@@@@@@@@@@@+o@@oooo++++++++++++++X+++++    +@@@@@@@@@",
"@@@@@@@@@@@@@@@@@@@@@@+@@@@@oooo+++++++++++++++++      @@@@@@@@@",
"@@@@@@@@@@@@@@@@@@@@@@+@@@@@@@oo+++++++++++++++++      @@@@@@@@@",
"@@@@@@@@@@@@@@@@@@@@@@o@@@@@@@@@+o+o++++++++++++       @@@@@@@@@",
"@@@@@@@@@@@@@@@@@@@@@@@@@@@@@@@@+++o++o+++++++++       @@@@@@@@@",
"@@@@@@@@@@@@@@@@@@@@@@@@@@@@@@@@@++@++oo++++++++       @@@@@@@@@",
"@@@@@@@@@@@@@@@@@@@@@@@@@@@@@@@@@@+@++@oooo+++++       @@@@@@@@@",
"@@@@@@@@@@@@@@@@@@@@@@@@@@@@@@@@@@++++@@@ooo++++o      @@@@@@@@@",
"@@@@@@@@@@@@@@@@@@@@@@@@@@@@@@@@@@@+++@@@@@ooo++o      @@@@@@@@@",
"@@@@@@@@@@@@@@@@@@@@@@@@@@@@@@@@@@@@++@@@@@@@oo++o    o@@@@@@@@@",
"@@@@@@@@@@@@@@@@@@@@@@@@@@@@@@@@@@@@+o@@@@@@@@o+++oooo+@@@@@@@@@",
"@@@@@@@@@@@@@@@@@@@@@@@@@@@@@@@@@@@@+@@@@@@@@@oX+o+++++@@@@@@@@@",
"@@@@@@@@@@@@@@@@@@@@@@@@@@@@@@@@@@@@+@@@@@@@@@@++ooo+++@@@@@@@@@",
"@@@@@@@@@@@@@@@@@@@@@@@@@@@@@@@@@@@@+@@@@@@@@@@++@ooo++@@@@@@@@@",
"@@@@@@@@@@@@@@@@@@@@@@@@@@@@@@@@@@@@o@@@@@@@@@@++@@oooo@@@@@@@@@",
"@@@@@@@@@@@@@@@@@@@@@@@@@@@@@@@@@@@@@@@@@@@@@@@+o@@@@@@@@@@@@@@@",
"@@@@@@@@@@@@@@@@@@@@@@@@@@@@@@@@@@@@@@@@@@@@@@@+@@@@@@@@@@@@@@@@",
"@@@@@@@@@@@@@@@@@@@@@@@@@@@@@@@@@@@@@@@@@@@@@@@+@@@@@@@@@@@@@@@@",
"@@@@@@@@@@@@@@@@@@@@@@@@@@@@@@@@@@@@@@@@@@@@@@@+@@@@@@@@@@@@@@@@",
"@@@@@@@@@@@@@@@@@@@@@@@@@@@@@@@@@@@@@@@@@@@@@@@o@@@@@@@@@@@@@@@@"
};
