/* XPM */
static char *result[] = {
/* columns rows colors chars-per-pixel */
"64 64 12 1 ",
"  c gray13",
". c #4E342E",
"X c gray26",
"o c #6D4C41",
"O c #455A64",
"+ c #BF360C",
"@ c #0288D1",
"# c #00BBD4",
"$ c #00BCD4",
"% c gray74",
"& c gray98",
"* c None",
/* pixels */
"****************************************************************",
"****************************************************************",
"****************************OOOOO*******************************",
"**************************OO$$$$$OO*****************************",
"************************OO$$@@@@$$$OO***************************",
"**********************OO$$@@$@@@#@@$$OO*************************",
"*********************O$$#@@@@$@$@@@@#$$O************************",
"********************OO$@@#@@$$+$$@@#@@$OO***********************",
"*******************O$$@@@@#$o+++o$#@@@@$$O**********************",
"******************OO$@@@@@++o+++o++@@@@@$OO*********************",
"*****************O$$@@@@o+++o+++o+++o@@#@$$O********************",
"****************OO$$$$$$o+++o+++o+++o@#@@@$OO*******************",
"***************O$$@@@@++o+++o+++o+++o#@@@@@$$O******************",
"***************O$@@@@@++o+++o+++o+++o++@@@@@$O******************",
"**************O$$@@@o+++o+++o+++o+++o+++o@@$$$O*****************",
"**************O$$$$$o+++o+++o+++o+++o+++o$$$@$O*****************",
"*************O$@@@@+o+++o+++o+++o+++o+++o+@@@@$O****************",
"*************O$@@@@+o+++o+++o+++o+++o+++o+@@@@$O****************",
"*************O$@@@++o+++o+++o+++o+++o+++o++@@@$O****************",
"************O$$$$$++o+++o+++o+++o+++o+++o++$$$$$O***************",
"************O$@@@@++o+++o+++o+++o+++o+++o+++@@@$O***************",
"************O$@@@+++o+++o+++o+++o+++o+++o+++@@@$O***************",
"************O$@@@+++o+++o+++o+++o+++o+++o+++@@@$O***************",
"************O$$$$+++o+++o+++o+++o+++o+++o+++$$$$O***************",
"************O$@@@...........................@@@$O***************",
"************O$@@@ooooooooooooooooooooooooooo@@@$O***************",
"************O$@@@%oo%oo%oo%oo%oo%oo%oo%oo%oo@@@$O***************",
"************O$$$$ooooooooooooooooooooooooooo$$$$O***************",
"************O$@@@...........................@@@$O***************",
"************O$@@@+++o+++o+++o+++o+++o+++o+++@@@$O***************",
"************O$@@@+++o+++o+++o+++o+++o+++o+++@@@$O***************",
"************O$$$$XXXo+++o+++o+++o+++o+++o+++$$$$O***************",
"************O$@@@X&Xo+++o+++o+++o+++o+++o+++@@@$O***************",
"************O$@@@+ +o+++o+++o+++o+++o+++o+++@@@$O***************",
"************O$@@@+ +o+++o+++o+++o+++o+++o+++@@@$O***************",
"************O$$$$+ +o+++o+++o+++o+++o+++o+++$$$$O***************",
"************O$@@@+ +o+++o+++o+++o+++o+++o+++@@@$O***************",
"************O$@@@+ +o+++o+++o+++o+++o+++o+++@@@$O***************",
"************O$@@@+ +o+++o+++o+++o+++o+++o+++@@@$O***************",
"************O$$$$X&Xo+++o+++o+++o+++o+++o+++$$$$O***************",
"************O$@@@XXXo+++o+++o+++o+++o+++o+++@@@$O***************",
"************O$@@@+++o+++o+++o+++o+++o+++o+++@@@$O***************",
"************O$@@@+++o+++o+++o+++o+++o+++o+++@@@$O***************",
"************O$$$$+++o+++o+++o+++o+++o+++o+++$$$$O***************",
"************O$@@@+++o+++o+++o+++o+++o+++o+++@@@$O***************",
"************O$@@@...........................@@@$O***************",
"************O$@@@ooooooooooooooooooooooooooo@@@$O***************",
"************O$$$$%oo%oo%oo%oo%oo%oo%oo%oo%oo$$$$O***************",
"************O$@@@ooooooooooooooooooooooooooo@@@$O***************",
"************O$@@@...........................@@@$O***************",
"************O$@@@+++o+++o+++o+++o+++o+++o+++@@@$O***************",
"************O$$$$+++o+++o+++o+++o+++o+++o+++$$$$O***************",
"************O$@@@+++o+++o+++o+++o+++o+++o+++@@@$O***************",
"************O$@@@+++o+++o+++o+++o+++o+++o+++@@@$O***************",
"************O$@@@+++o+++o+++o+++o+++o+++o+++@@@$O***************",
"************O$$$$+++o+++o+++o+++o+++o+++o+++$$$$O***************",
"************O$@@@+++o+++o+++o+++o+++o+++o+++@@@$O***************",
"************O$@@@+++o+++o+++o+++o+++o+++o+++@@@$O***************",
"************O$@@@+++o+++o+++o+++o+++o+++o+++@@@$O***************",
"*************OOOOOOOOOOOOOOOOOOOOOOOOOOOOOOOOOOO****************",
"****************************************************************",
"****************************************************************",
"****************************************************************",
"****************************************************************"
};
