/* XPM */
static char *result[] = {
/* columns rows colors chars-per-pixel */
"64 64 2 1 ",
"  c #2F6330",
". c #4CAF50",
/* pixels */
"  ...........................  .................  ............  ",
".  ..........................  ..........   ....  ...........  .",
"..  ......... ...  .. ......... ...........      ............  .",
"... .......... .       ........ ........... ...............  ...",
"...  .........   ..............  .......................... ....",
".... ...........................   ......................  .....",
".................................................  .............",
"......... ..... ........................ ....... ...............",
"........  .....     .....  ............  ........ ..............",
"......   ...    ... ......   .......    .........  .............",
"....   .......  .............   ................. ..............",
"... ........................... .............  .  ..............",
".. ..........................   ...............  ....     ......",
".............................  ......  ..............  .........",
".................... ......... ....... ...............  ........",
"..........  .........  ...............  ...............  .... ..",
"... ...... ........... ................  .............. ....  ..",
".. ....... ...........    ..............  .............  ... ...",
".. .....   ............................... ................  ...",
"..  ....................................................... ....",
"... ...........  ........... .............................  ....",
".   ..........  ..........    ..................  ..............",
".  ..........  ..............  ......... .......  ..............",
"... ........  ................ ........  ........ ..... ........",
"............ .................   .....  ........  .....  .......",
"..................... .......... ..... ......... .......  ......",
"................. ...  ........................  ........   ....",
"................. .... ....................................  ...",
"...............   ....  ........................................",
"..   .......... ........ .......................................",
".... .......... ........ ...................   .................",
"....  .........  ................   ........ ......... .........",
".....   .......  ...............  .........  ......   ....... ..",
"....... ..................... .  ......... .......  ......... ..",
"....... ....................    ......... .......  ......     ..",
"......................................... ......  ........  ....",
".................... ........................... .......... ....",
".................... ........................... .......... ....",
".....................    ........... ...................... ....",
".............  .........  .......... ............... ...........",
".   .......... .......... .........  ....  .........   .........",
"...  ......... ..........  ........ ...... ........... .........",
"....   .......    ................. ...... ...........   .......",
"......  ......... ................ ........  ........... .......",
".................. ..............  .........  ..........  ......",
".................  .............. ...........  .................",
"..  .......................   ..................................",
"..  ........ .............  ....................................",
"..     ..... ............. ............. .......... ............",
"....   ..... ...........   ............  .......... .......  ...",
"............ ........... ............   ........... ....... ....",
"..........   ..........  ............ ......        .....  .....",
"............... ...................   ...... ...........  ......",
"............... ............. ..... ........  .........  .......",
"............... ............. ...............  .................",
"...............   ........... ................   ...............",
"................. ........... ..................................",
"...... ......................  ................... ........ ....",
"...... .....  ........... ....      ........ .....  ....... ....",
".....  ...... ........    ......... .......  ......  ......  ...",
"...  ........  ....... ..................   ......... .......  .",
"...   ................ .................  ...........  ....... .",
"..... ................ ................. ..................... .",
".... ..........................................................."
};
