/* XPM */
static char *result[] = {
/* columns rows colors chars-per-pixel */
"64 64 7 1 ",
"  c #414141",
". c gray26",
"X c #555555",
"o c #626262",
"O c #676767",
"+ c #747474",
"@ c gray46",
/* pixels */
".............................................................X..",
"@@@@@@@@@.@@@@@@@@@@@@X@@@@@@@@.@@@@@@@@@@@@@@@@@@X..@@@@@@@@O@@",
"@@@@@@@@@@.@@@@@@@@@@.O@@@@@@@@.@@@@@@@@@@@@@@@@@XX@@@@@@@@@@@@@",
"@@@@@@@@@@.@@@@@@@@@@.@@@@@@@@@.@@@@@@@@@@@@@@@@@X@@@@@@@@@@@@@@",
"@@@@@@@@@@.@@@@@@@@@@.@@@@@@@@@X@@@@@@@@@@@@@@@@@.@@@@@@@@@@@@@@",
"@@@@@@@@@@X@@@@@@@@@@.@@@@@@@@@O.@@@@@@@@@@@@@@@@.@@@@@@@@@@@@@@",
"@@@@@@@@@OX.@@@@@@@@..@@@@@@@@@@.@@@@@@@@@@@@@@@..@@@@@@@@@@@@@@",
"X........X...........X............X.............X...............",
"O@@@@@@@..@@@@@@@@@@@O.@@@@@@@@@@@O.@@@@@@@@@@@.O@@@@@@@@@@@@@@@",
"@@@@@@@@@.@@@@@@@@@@@@.@@@@@@@@@@@@.@@@@@@@@@@@@.@@@@@@@@@@@@@@@",
"@@@@@@@@@.@@@@@@@@@@@@.@@@@@@@@@@@.@@@@@@@@@@@@@.@@@@@@@@@@@@@@@",
"@@@@@@@@@.@@@@@@@@@@O@.@@@@@@@@@@@.@@@@@@@@@@@@@.@@@@@@@@@@@@@@@",
"@@@@@@@@@.@@@@@@@@@@O..@@@@@@@@@@@.@@@@@@@@@@@@@.@@@@@@@@@@@@@@@",
"@@@@@@@@@.@@@@@@@@@@..X@@@@@@@@@@.@@@@@@@@@@@@@@.@@@@@@@@@@@@@@@",
".....................XX....X....................................",
"@@@@@@@@@@.@@@@@@@@@@O@@@..X@@@@@@@@@@@@@@@@.@@@@@@@@@@@@@@.@@@@",
"@@@@@@@@@@.@@@@@@@@@@@@@@@.@@@@@@@@@@@@@@@@@.@@@@@@@@@@@@@.@@@@@",
"@@@@@@@@@@@.@@@@@@@@@@@@@@.@@@@@@@@@@@@@@@@@.@@@@@@@@@@@@O.@@@@@",
"@@@@@@@@@@O.@@@@@@@@@@@@@@.@@@@@@@@@@@@@@@@@.@@@@@@@@@@@@O.@@@@@",
"@@@@@@@@@@X.@@@@@@@@@@@@@@@.@@@@@@@@@@@@@@@@@X@@@@@@@@@@O.@@@@@@",
"@@@@@@@@@@ @@@@@@@@@@@@@@@...@@@@@@@@@@@@@@@@X.@@O@@@@@@X.@@@@@@",
".................................................X............X.",
"@@@@X.@@@@@@@@@@.@@@@@@@@@@@@@.@@@@@@@@@@@@@@@@@.@@@@@@@@@@@@@O@",
"@@@XX@@@@@@@@@@@@.@@@@@@@@@@@@.@@@@@@@@@@@@@@@@@.@@@@@@@@@@@@@@@",
"@@@X@@@@@@@@@@@@@.@@@@@@@@@@@@.@@@@@@@@@@@@@@@@@.@@@@@@@@@@@@@@@",
"@@@.@@@@@@@@@@@@@.@@@@@@@@@@@@@.@@@@@@@@@@@@@@@.X@@@@@@@@@@@@@@@",
"@@@.@@@@@@@@@@@@+.@@@@@@@@@@@OX.@@@@@@@@@@@@@@O.X@@@@@@@@@@@@@@@",
"@@@.@@@@@@@@@@@@+.@@@@@@@@@@@XX.@@@@@@@@@@@@@@X..@@@@@@@@@@@@@@@",
"..X.............o.................X.............................",
"@@O@@@@@@@X.@@@@@@@@@@@@@.X@@@@@@@O@@@@@..@@@@@@@@@@@@@.@@@@@@@@",
"@@@@@@@@@@O.@@@@@@@@@@@@@.X@@@@@@@@@@@@@@.@@@@@@@@@@@@.@@@@@@@@@",
"@@@@@@@@@@@.@@@@@@@@@@@@@..@@@@@@@@@@@@@@@.@@@@@@@@@@@.@@@@@@@@@",
"@@@@@@@@@@@@.@@@@@@@@@@@X..@@@@@@@@@@@@@@@.@@@@@@@@@@@.@@@@@@@@@",
"@@@@@@@@@@@@.@@@@@@@@@@@XX.@@@@@@@@@@@@@@@.@@@@@@@@@@@.@@@@@@@@@",
"@@@@@@@@@@@@.@@@@@@@@@@@.X.@@@@@@@@@@@@@@@@.@@@@O@@@@...@@@@@@@@",
"................................................X...............",
"@@@@@@@@@.@@@@@@@@@@@@@@..@@@@@@@@@@.@@@@@@@@@@...@@@@@@@@.X@@@@",
"@@@@@@@@@.@@@@@@@@@@@@@@..@@@@@@@@@@@.@@@@@@@@@@..@@@@@@@@@X@@@@",
"@@@@@@@@@@.@@@@@@@@@@@@@@X.@@@@@@@@@@.@@@@@@@@@@.@@@@@@@@@@.@@@@",
"@@@@@@@@@@.@@@@@@@@@@@@@.X@@@@@@@@@@@.@@@@@@@@@@.@@@@@@@@@@.@@@@",
"@@@@@@@@@.X@@@@@@@@@@@@.@@@@@@@@@@@@@@.@@@@@@@@..@@@@@@@@@@@.@@@",
"@@@@@@@@@.O@@@@@@@@@@@@.@@@@@@@@@O@@@@.@@@@@@@@.@@@@@@@@@@@@.@@@",
"............X...............X....X..............................",
"@@@@@@@@@@@@O.@@@@@@@@@@@@@.O@@@@@@@@@@@@@.@@@@@@@@@@@.@@@@@@@@@",
"@@@@@@@@@@@@@.@@@@@@@@@@@@@.@@@@@@@@@@@@@@.@@@@@@@@@@@.@@@@@@@@@",
"@@@@@@@@@@@@@@..@@@@@@@@@@.@@@@@@@@@@@@@@.@@@@@@@@@@@@@.@@@@@@@@",
"@@@@@@@@@@@@@@.@@@@@@@@@@@.@@@@@@@@@@@@@@.@@@@@@@@@@@@@.@@@@@@@@",
"@@@@@@@@@@@@@@.X@@@@@@@@@OX@@@@@@@@@@@@@@.O@@@@@@@@@@@@@.@@@@@@@",
"@@@@@@@@@@@@@@.X@@@@@@@@@oX.@@@@@@@@@@@@O.X@@@@@@@@@@@@@.@@@@@@@",
"...X.....................X..............X.......................",
"@@@O.@@@@@@@@@@@@.@@@@@@@@@@@@@@@@@@.@@@@@@@@@@@@@.O@@@@@@@@@@@@",
"@@@@.@@@@@@@@@@@@@.@@@@@@@@@@@@@@@@@X@@@@@@@@@@@@@.X@@@@@@@@@@@@",
"@@@.@@@@@@@@@@@@@@.@@@@@@@@@@@@@@@@@O.@@@@@@@@@@@@@.@@@@@@@@@@@@",
"@@@.@@@@@@@@@@@@@@@.@@@@@@@@@@@@@@@@..@@@@@@@@@@@@@.@@@@@@@@@@@@",
"@@@.@@@@@@@@@@@@@@@X.@@@@@@@@@@@@@@@@.@@@@@@@@@@@@@@.@@@@@@@@@@@",
"@@@X@@@@@@@@@@@@@@@O.@@@@@@@@@@@@@@@@.@@@@@@@@@@@@@@.@@@@@@@@@O@",
"...X.....X....................................................X.",
"@@@@@@@@@O@@@.@@@@@@@@@@@@@@@.@@@@@@@@@@@@@@X@@@@@@@@@@@@@.@@@@@",
"@@@@@@@@@@@@@.@@@@@@@@@@@@@@@@.@@@@@@@@@@@@@O.@@@@@@@@@@@@.@@@@@",
"@@@@@@@@@@@@@@.@@@@@@@@@@@@@@@.@@@@@@@@@@@@@@X@@@@@@@@@@@@O@@@@@",
"@@@@@@@@@@@@@@.@@@@@@@@@@@@@@@@.O@@@@@@@@@@@.X@@@@@@@@@@@.X@@@@@",
"@@@@@@@@@@@@@@@.@@@@@@@@@@@@@@@.X@@@@@@@@@@@@.@@@@@@@@@@@O@@@@@@",
"@@@@@@@@@@@@@@@.@@@@@@@@@@@@@@@..@@@@@@@@@@@@.@@@@@@@@@@.X@@@@@@",
"@@@@@@@@@@@@@@@@@@@@@@@@@@@@@@@@@@@@@@@@@@@@@@@@@@@@@@@@@@@@@@@@"
};
