/* XPM */
static char *result[] = {
/* columns rows colors chars-per-pixel */
"64 64 9 1 ",
"  c black",
". c #795548",
"X c #C25555",
"o c #E57373",
"O c gray62",
"+ c #FFCDD2",
"@ c #FFEBEE",
"# c white",
"$ c None",
/* pixels */
"$$$$$$$$$$$$$$$$$$$$$$$$$$$$$$$$$$$$$$$$$$$$$$$$$$$$$$$$$$$$$$$$",
"$$$$$$$$$$$$$$$$$$$$$$$$$$$$$$$$$$$$$$$$$$$$$$$$$$$$$$$$$$$$$$$$",
"$$$$$$$$$$$$$$$$$$$$$$$$$$$$$$$$$$$$$$$$$$$$$$$$$$$$$$$$$$$$$$$$",
"$$$$$$$$$$$$$$$$$$$$$$$$$$$$$$$$$$$$$$$$$$$$$$$$$$$$$$$$$$$$$$$$",
"$$$$$$$$$$$$$$$$$$$$$$$$$$$$$$$$$$$$$$$$$$$$$$$$$$$$$$$$$$$$$$$$",
"$$$$$$$$$$$$$$$$$$$$$$$$$$$$$$$$$$$$$$$$$$$$$$$$$$$$$$$$$$$$$$$$",
"$$$$$$$$$$$$$$$$+++$$$$$$$$$$$$$$$$$$$$$$$$$$$$$+++$$$$$$$$$$$$$",
"$$$$$$$$$$$$$$$$+@+$$$$$$$$$$$$$$$$$$$$$$$$$$$$$+@+$$$$$$$$$$$$$",
"$$$$$$$$$$$$$$$$+@+++$$$$$$$$$$$$$$$$$$$$$$$$$+++@+$$$$$$$$$$$$$",
"$$$$$$$$$$$$$$$$+@@@++$$$$$$$$$$$$$$$$$$$$$$$++@@@+$$$$$$$$$$$$$",
"$$$$$$$$$$$$$$$++@@@@@+$$$$$$+++++++++$$$$$$+@@@@@++$$$$$$$$$$$$",
"$$$$$$$$$$$$$$++@@@@@@+$$$+++++++++++++++$$++@@@@@@++$$$$$$$$$$$",
"$$$$$$$$$$$$$$+@@@@@@@++++++++++++++++++++++@@@@@@@@+$$$$$$$$$$$",
"$$$$$$$$$$$$$$+@@@@@@@+++++++++++++++++++++++@@@@@@@+$$$$$$$$$$$",
"$$$$$$$$$$$$$$+@@@@@+++++++++++++++++++++++++++@@@@@+$$$$$$$$$$$",
"$$$$$$$$$$$$$$+@@@@+++++++++++++++++++++++++++++@@@@+$$$$$$$$$$$",
"$$$$$$$$$$$$$$+@@@+++++++++++++++++++++++++++++++@@@+$$$$$$$$$$$",
"$$$$$$$$$$$$$$+@@+++++++++++++++++++++++++++++++++@@+$$$$$$$$$$$",
"$$$$$$$$$$$$$$+@+++++++++++++++++++++++++++++++++++@+$$$$$$$$$$$",
"$$$$$$$$$$$$$$+++++++++++++++++++++++++++++++++++++++$$$$$$$$$$$",
"$$$$$$$$$$$$$$$+++++++++++++++++++++++++++++++++++++$$$$$$$$$$$$",
"$$$$$$$$$$$$$$+++++++++++++++++++++++++++++++++++++++$$$$$$$$$$$",
"$$$$$$$$$$$$$+++++++++++++++++++++++++++++++++++++++++$$$$$$$$$$",
"$$$$$$$$$$$$$+++++++++   +++++++++++++++   +++++++++++$$$$$$$$$$",
"$$$$$$$$$$$$$++++++++     +++++++++++++     ++++++++++$$$$$$$$$$",
"$$$$+++$$$$$+++++++++   # +++++++++++++   # +++++++++++$$$$$$$$$",
"$$$$$$++$$$$+++++++++   # +++++++++++++   # +++++++++++$$$$$$$$$",
"$$$$$$$+$$$$++++++++++   +++++++++++++++   ++++++++++++$$$$$$$$$",
"$$$$$$$+$$$+++++++++++++++++++++++++++++++++++++++++++++$$$$$$$$",
"$$$$$$$+$$$+++++++++++++++++++++++++++++++++++++++++++++$$$$$$$$",
"$+++++$+$$$+++++++++++++++++++++++++++++++++++++++++++++$$$$$$$$",
"$+$$$+++$$$+++++++++++++++++++++++++++++++++++++++++++++$$$$$$$$",
"$++$$$++++$+++++++++++++++++++ooooo+++++++++++++++++++++$$$$$$$$",
"$$+++++$$+++++++++++++++++++ooooooooo+++++++++++++++++++$$$$$$$$",
"$$$$$$$$$$$++++++++++++++++ooooXoXoooo++++++++++++++++++$$$$$$$$",
"$$$$$$$$$$$++++++++++++++++ooooXoXoooo++++++++++++++++++$$$$$$$$",
"$$$$$$$$$$$++++++++++++++++ooooXoXoooo++++++++++++++++++$$$$$$$$",
"$$$$$$$$$$$$+++++++++++++++OoooooooooO+++++++++++++++++$$$$$$$$$",
"$$$$$$$$$$$$+++++++++++++++OOOoooooOOO+++++++++++++++++$$$$$$$$$",
"$$$$$$$$$$$$+++++++++++++++++OOOOOOO+++++++++++++++++++$$$$$$$$$",
"$$$$$$$$$$$$$+++++++++++++++++++++++++++++++++++++++++$$$$$$$$$$",
"$$$$$$$$$$$$$+++++++++++++++++++++++++++++++++++++++++$$$$$$$$$$",
"$$$$$$$$$$$$$+++++++++++++++++++++++++++++++++++++++++$$$$$$$$$$",
"$$$$$$$$$$$$$$+++++++++++++++++++++++++++++++++++++++$$$$$$$$$$$",
"$$$$$$$$$$$$$$$+++++++++++++++++++++++++++++++++++++$$$$$$$$$$$$",
"$$$$$$$$$$$$$$$+++++++++++++++++++++++++++++++++++++$$$$$$$$$$$$",
"$$$$$$$$$$$$$$$$+++++++++++++++++++++++++++++++++++$$$$$$$$$$$$$",
"$$$$$$$$$$$$$$$$$+++++++++++++++++++++++++++++++++$$$$$$$$$$$$$$",
"$$$$$$$$$$$$$$$$$+++++++++++++++++++++++++++++++++$$$$$$$$$$$$$$",
"$$$$$$$$$$$$$$$$$+++++++++++++++++++++++++++++++++$$$$$$$$$$$$$$",
"$$$$$$$$$$$$$$$$++++OO+++++++++++++++++++++++OO++++$$$$$$$$$$$$$",
"$$$$$$$$$$$$$$$$++++OOO+++++++++++++++++++++OOO++++$$$$$$$$$$$$$",
"$$$$$$$$$$$$$$$$++++++OO+++++++++++++++++++OO++++++$$$$$$$$$$$$$",
"$$$$$$$$$$$$$$$$++++++++$$+++++++++++++++$$++++++++$$$$$$$$$$$$$",
"$$$$$$$$$$$$$$$$++++++++$$$$$+++++++++$$$$$++++++++$$$$$$$$$$$$$",
"$$$$$$$$$$$$$$$$++++++++$$$$$$$$$$$$$$$$$$$++++++++$$$$$$$$$$$$$",
"$$$$$$$$$$$$$$$$++++++++$$$$$$$$$$$$$$$$$$$++++++++$$$$$$$$$$$$$",
"$$$$$$$$$$$$$$$$$+++++++$$$$$$$$$$$$$$$$$$$+++++++$$$$$$$$$$$$$$",
"$$$$$$$$$$$$$$$$$..++++$$$$$$$$$$$$$$$$$$$$$++++..$$$$$$$$$$$$$$",
"$$$$$$$$$$$$$$$$$..$$..$$$$$$$$$$$$$$$$$$$$$..$$..$$$$$$$$$$$$$$",
"$$$$$$$$$$$$$$$$$$$$$..$$$$$$$$$$$$$$$$$$$$$..$$$$$$$$$$$$$$$$$$",
"$$$$$$$$$$$$$$$$$$$$$$$$$$$$$$$$$$$$$$$$$$$$$$$$$$$$$$$$$$$$$$$$",
"$$$$$$$$$$$$$$$$$$$$$$$$$$$$$$$$$$$$$$$$$$$$$$$$$$$$$$$$$$$$$$$$",
"$$$$$$$$$$$$$$$$$$$$$$$$$$$$$$$$$$$$$$$$$$$$$$$$$$$$$$$$$$$$$$$$"
};
