/* XPM */
static char *result[] = {
/* columns rows colors chars-per-pixel */
"64 64 223 2 ",
"   c #34334F",
".  c #39334F",
"X  c #363550",
"o  c #3B3650",
"O  c #3E3851",
"+  c #2F344F",
"@  c #413751",
"#  c #423951",
"$  c #4B3C53",
"%  c #533D54",
"&  c #5B3E55",
"*  c #633E56",
"=  c #693E58",
"-  c #4D4456",
";  c #4C4557",
":  c #544355",
">  c #5B4456",
",  c #564857",
"<  c #544A5A",
"1  c #5C4C59",
"2  c #5C4857",
"3  c #5A525D",
"4  c #634357",
"5  c #6A4357",
"6  c #644857",
"7  c #6C4358",
"8  c #644B59",
"9  c #6C4B59",
"0  c #654759",
"q  c #73445A",
"w  c #7B445B",
"e  c #734C5A",
"r  c #7B4A5B",
"t  c #734157",
"y  c #64525C",
"u  c #6B535C",
"i  c #74535C",
"p  c #7B545D",
"a  c #75595F",
"s  c #7D595F",
"d  c #685B62",
"f  c #745C61",
"g  c #7B5C61",
"h  c #6C6367",
"j  c #736366",
"k  c #7B6264",
"l  c #746A6B",
"z  c #766769",
"x  c #7E7472",
"c  c #7C706F",
"v  c #84465F",
"b  c #844B5C",
"n  c #8B4E5E",
"m  c #82555E",
"M  c #8C515F",
"N  c #81585F",
"B  c #90515F",
"V  c #8D4A61",
"C  c #884760",
"Z  c #944C63",
"A  c #9B4E65",
"S  c #835C61",
"D  c #8C5C61",
"F  c #8E5460",
"G  c #945361",
"H  c #9B5563",
"J  c #945B62",
"K  c #9B5C64",
"L  c #A25565",
"P  c #A45B65",
"I  c #AB5B67",
"U  c #AE5C68",
"Y  c #A95768",
"T  c #B35D69",
"R  c #B85F6B",
"E  c #846365",
"W  c #8B6465",
"Q  c #836867",
"!  c #856B69",
"~  c #8B6C69",
"^  c #8B6867",
"/  c #936264",
"(  c #9B6466",
")  c #926867",
"_  c #9E6867",
"`  c #936B69",
"'  c #9E6C69",
"]  c #8D726C",
"[  c #93746E",
"{  c #9C716D",
"}  c #95786F",
"|  c #847976",
" . c #8A7E79",
".. c #877672",
"X. c #957972",
"o. c #9D7D73",
"O. c #957770",
"+. c #A16567",
"@. c #A96267",
"#. c #AC6368",
"$. c #A36B69",
"%. c #AA6E6B",
"&. c #A06867",
"*. c #B3656A",
"=. c #BA626B",
"-. c #B36C6C",
";. c #BB6D6E",
":. c #A4746E",
">. c #AC726D",
",. c #B3746E",
"<. c #BD716F",
"1. c #A57770",
"2. c #A27D73",
"3. c #AC7B73",
"4. c #AB7770",
"5. c #B67770",
"6. c #BA7670",
"7. c #B37C73",
"8. c #BC7A72",
"9. c #C26E6F",
"0. c #C37371",
"q. c #C47D74",
"w. c #CB7D75",
"e. c #C97773",
"r. c #92837C",
"t. c #9A857C",
"y. c #998279",
"u. c #8D837C",
"i. c #A18075",
"p. c #AA8276",
"a. c #AB8679",
"s. c #AD8A7B",
"d. c #A78A7F",
"f. c #B48176",
"g. c #BC8277",
"h. c #B58679",
"j. c #BB8579",
"k. c #B28D7D",
"l. c #BB8B7C",
"z. c #BB907F",
"x. c #C58176",
"c. c #CB8277",
"v. c #C48679",
"b. c #CD8579",
"n. c #C48B7C",
"m. c #CC8B7C",
"M. c #D18579",
"N. c #D38B7C",
"B. c #D4897B",
"V. c #C9907F",
"C. c #D4907F",
"Z. c #9C8C82",
"A. c #968880",
"S. c #9E9286",
"D. c #A19589",
"F. c #A9998B",
"G. c #B39283",
"H. c #BC9582",
"J. c #BC9B88",
"K. c #AD9F91",
"L. c #BB8F80",
"P. c #BEA18E",
"I. c #ADA191",
"U. c #BAA996",
"Y. c #BEB09C",
"T. c #C49482",
"R. c #CC9381",
"E. c #C29985",
"W. c #CB9A85",
"Q. c #CA9E88",
"!. c #C59E89",
"~. c #D49382",
"^. c #D99583",
"/. c #D49A86",
"(. c #DB9B86",
"). c #D69E89",
"_. c #DC9E88",
"`. c #D48F80",
"'. c #CDA28B",
"]. c #C4A28D",
"[. c #D3A58C",
"{. c #DCA38B",
"}. c #D5A98F",
"|. c #DAA88F",
" X c #C6A995",
".X c #D6AC92",
"XX c #DBAD92",
"oX c #DAAD98",
"OX c #C2B29E",
"+X c #CAB39D",
"@X c #DEB095",
"#X c #DCB49A",
"$X c #D9B59C",
"%X c #E0A68E",
"&X c #E1A98F",
"*X c #E3AD92",
"=X c #E0AE98",
"-X c #E5B296",
";X c #E6B698",
":X c #E8B798",
">X c #E5BA9D",
",X c #E9BB9C",
"<X c #E8B597",
"1X c #CAB9A3",
"2X c #DABDA3",
"3X c #D2BDA6",
"4X c #E6BEA1",
"5X c #EABFA0",
"6X c #DBC4AB",
"7X c #DBC9AF",
"8X c #D4C2AA",
"9X c #DCCAB0",
"0X c #EBC3A5",
"qX c #E1C5AA",
"wX c #EAC6A8",
"eX c #E6C9AD",
"rX c #EDCAAC",
"tX c #E6C4A6",
"yX c #E8CEB2",
"uX c #ECD2B5",
"iX c #E5D1B5",
"pX c #F0D3B4",
"aX c None",
/* pixels */
"aXaXaX; < < ; < ; ; - - ; ; ; # O # ; ; ; ; ; ; ; ; ; ; ; ; ; ; ; ; ; ; ; ; ; # $ $ - - $ $ - o # # # $ - # $ - $ - $ aXaXaXaXaX",
"aXaXaXl l l l l l j j j z h d < ; 3 h h l l l l l l l h f h h l l l l l l h d y 9 9 6 6 8 6 6 : $ - : 6 8 u 9 u y 6 u aXaXaXaXaX",
"aXaXc A.Z.S.S.Z.Z.t.o.t.Z.A. .h 3 h u.t.d.D.D.D.d.t.t.y.y.y.d.t.t.d.D.D.S.t.u.^ D N D W ) W S y : 2 e N D ) ^ ) ^ ^ E a aXaXaXaX",
"aX< | F.U.1X1X1X XP.J.P.Y.U.S.x h | D.Y.1XOXY.OXOXY.Y.z.P.U.Y.Y.OXOXOXOXY.P.z.p.>.$.>.>.4.p.` g 6 9 D &.4.4.f.h.f.4.{ g , aXaXaX",
"X <  .U.3X7X9X7X2X$XoX$X2X3XU.r.x r.Y.8X9X9X7X7X9X7X2X.X$X$X6X7X9X9X7X7X6X$X XV.q.0.g.x.n.n.f.^ i s &.5.x.n.C.C.m.l.4.S , aXaXaX",
"o <  .U.6XuXuXuXeX4X>X4XeX7X+XS.u.k.1XiXuXiXuXuXiXiXtX>X$XtXeXuXuXiXuXuXiXqXoX/.M.c.c.M.N.m.g.{ S D >.x.N.C.C.%X/.V.7.W > . aXaX",
"X <  .U.qXpXpXrXrXtX5X0XrXwX$XJ.k.U.2XyXuXuXpXpXpXrXwX5X5X0XrXrXuXuXuXpXyXwXoX^.B.B.B.N.C.C.n.4.' %.8.c.N.C.C.C.^.C.7.E ,   aXaX",
"X , [ P.2XrXrXrX0X5X,X5X0XtX>X X'. X>XrXrXrXrXrXrXrX0X5X5X0XrXrXrXrXrXrXrX4X*X^.B.B.B.N.C.C.b.6.,.5.x.M.C.C.C.C.^.m.7.S , . aXaX",
"X , ..z.@X4X4X4X>X;X;X;X>X>X#X.X}..X$X4X4X4X4X4X4X4X;X;X;X;X>X>X>X>X4X4X>X-X[.C.M.b.b.M.M.N.c.x.8.q.c.b.b.N.N.N.N.x.>.N , . aXaX",
"X , k a.]..X.X.X.X.X.X.X.X.X}.}.}.}..X.X.X.X.X@XXX.X.X.X.XXX.XXXoX@X.X.XXX[.C.n.x.x.x.x.x.x.x.x.q.q.q.q.x.x.x.x.x.8.$.p : . aXaX",
"o - f i.k.z.V.z.H.E.E.E.E.J.E.J.P.V.z.z.z.V.P.z.z.V.V.P.E.J.z.].E.E.E.E.z.z.j.5.>.,.,.,.,.,.,.,.,.>.,.,.,.,.,.,.,.%./ 9 - o aXaX",
"o - y k y.i.o.i.i.o.o.o.o.2.i.2.a.i.i.i.i.i.i.i.i.t.i.i.i.i.i.i.i.i.i.y.i.o.{ ) / / / / / / / / / ( / ( / / / ( / D p 6 $ o aXaX",
"o # , u g k k k k k k k k j k k k k k k f k k k k k k k k k k k k k Q k Q g p i i i 9 i i e e u i e e u e e i e i e 0 : # O aXaX",
"O # : 8 u a a i u 1 : : : : : : : : - : , : : : < < , , , , : 1 8 i i p i u u 5 5 > > % : % : : : : : : : : : > 6 4 > % # O aXaX",
"o # > e m M N N i 6 $ . o o X X . . X . X o . o o X X X . . @ % 9 p N N N m m r 5 & $ o . . o O o O . @ o o # & = 7 4 % # O aXaX",
"o - 9 N &.%.%.$.D 9 $           + + + + . +     + +         . > p ( $.$.%.+.K G b 5 $ o + . X X . . .   . . $ = b b r * $ O aXaX",
"o : i _ ,.x.x.,.$.N > o . o @ @ # # @ @ @ o @ @ @ @ @ . . . # 9 / >.8.8.8.6.-.I H e & O . . @ @ O O O o o o % r B H n 7 $ O aXaX",
". : s >.x.N.N.x.4.D 2 o . # $ % & 4 * > % $ # $ & : % # o o # u ' 8.b.N.m.c.q.;.P C * # $ % % @ # O O O o O > r K I J r % . aXaX",
". : S p.C.C.C.N.5./ 1 o . $ : t r b r t 5 % % * 5 t 4 % O   $ i $.v.`.^.^.`.b.0.%.F * % & = * % $ O O O X O > M @.*.( r : o aXaX",
". : Q h.C.{.{.C.g.W 8 O . - 5 b B G G n r * > t n n t : #   - i %.n.^._.{.(.~.w.-.D = & = w q = $ O X O o O > F %.;.@.p : X aXaX",
"X - ] k.}.&X{.C.j.) 8 . . % r G P #.I P b 5 5 r H H n 5 $ . - a 1.R.(.{.*X{.^.b.,.D 9 * w v v = $ O @ @ . @ 2 D ,.<.$.m : . aXaX",
"o , ] z..X-X*X{.j.` 8 X   % b P *.=.=.T G e 5 n P @.K r & @ - s 2.R.{.*X*X&X(.N.5.J 9 = v Z C = % $ $ % $ # 6 D ,.8.%.N % . aXaX",
"o , ] z.|.-X-X{.l.[ 8     : m @.9.0.0.-.K r 9 F #.-.@.M t & : s 2.W.&X=X=X*X_.R.6.) 9 = C Z V q % $ & * & % 4 / ,.8.>.p : . aXaX",
"X , ] z.XX<X-X}.V.[ y     > m %.0.e.e.<.+.p 9 J -.<.-.P n t 6 g a.).*X<X-X=X_.`.6.J 9 7 C Z V w % & = w = & 5 / ,.8.%.N , . aXaX",
". , ~ z.}.<X<X|.E.} y O @ 4 M ,.w.M.c.0.$.N i / -.0.0.*.H b 5 E a.[.@X;X;X*X(.N.5./ 9 7 C Z V = * = v v w = 6 / ,.8.>.m : . aXaX",
". , ] z.|.<X<X@XE.} y $ : i ( 5.c.M.M.x.$.s i / 6.c.e.;.@.n 9 Q s.[.-X;X-X&X_.m.5./ 9 7 C Z Z w 7 r V Z v = 9 / ,.q.%.N : . aXaX",
". , ! z.[.-X<XXXE.} u > i J %.8.M.N.N.c.>.s a / 6.c.c.0.*.J i k k.}.-X-X*X&X^.N.6./ 9 = C Z Z V b n H A Z q 9 J ,.8.>.N : X aXaX",
". : ^ k.[.*X<X-XE.X.u i N %.5.x.N.C.C.m.4.N i / 6.c.c.w.-.K i Q s.[.-X-X*X{.^.m.6.J 9 7 C Z A A H L I Y Z q 9 W ,.8.%.N : X aXaX",
". , E f.'.&X-X|.E.o.a s &.5.q.b.M.N.C.C.a.^ p ( 6.M.M.c.0.( p Q k.[.-X-X&X(.^.M.5./ 9 = v A L L I U T U G r 9 J 5.8.%.m % X aXaX",
". : E f.C.&X-XXXE.X.s N >.x.b.c.c.N.C.V.f.) N _ q.c.N.M.8._ a Q s.[.*X&X{.(.^.b.5./ 9 7 V A Y T T R R U H q e D 5.8.%.m : X aXaX",
"o , E f./.%X-X*XE.X.k W 7.v.b.g.g.c.C.V.j.:.( >.q.M.N.N.x._ s Q s.[.=X*X{.^.N.m.5./ 9 q V L T R =.=.=.T H r 9 / 5.6.%.S : X aXaX",
". , E f.C.|.*X|.E.X.s ) 8.m.v.>.:.f.V.C.V.g.,.6.x.M.C.C.x.:.s Q s.[.*X&X{.^.^.M.6.D e t Z Y R =.=.=.=.T H r e D 5.8.%.N % o aXaX",
". : E f.C.%X-XXXE.} g ^ f.m.j.' ) 4.V.C.C.v.q.x.b.m.C.C.n.:.k Q k.[.-X*X_.^.^.m.6./ e 9 G I T =.=.=.=.T H w 9 J ,.8.%.N :   aXaX",
". , W f.'.%X<XXXE.X.k ` j.V.g.W g { j.C.C.b.c.x.x.m.C.C.m.1.g Q s.}.XX*X%X^.~.M.,./ 9 q B Y T =.=.=.=.T H r 9 / ,.8.%.s :   aXaX",
". , ^ k.[.&X-XXXE.X.f ` j.V.f.^ a ) g.N.C.N.b.x.8.g.m.C.V.1.g Q s.'.-X-X&X{.^.b.,./ 9 7 b H I =.=.=.T I H q 9 / 7.8.%.N : X aXaX",
". , ^ l.{.*X<XXXE.} k ` j.V.f.W a ) g.N.C.N.c.6.%.>.j.m.V.1.E Q s.}.-X-X&X{.^.N.7.J 9 > t n H I R R T Y B t 9 / ,.0.%.N : X aXaX",
"o , ] z.}.<X<X@XE.X.g ` j.V.f.W a / 6.b.N.M.x.-./ ( f.n.n.1.E Q s.}.-X;X-X&X^.N.5./ 6 % & q F P T T U L v = 9 J ,.8.%.s : . aXaX",
". , ] z..X<X;X@XE.} g ` g.n.f.^ i / 5.b.B.M.x.$.N E 1.n.n.:.g Q s.}.-X;X-X&X_.m.5.J 6 # # & b L T T Y A v = 9 / ,.8.%.m % . aXaX",
"o < ] z.XX<X:XXXV.} f ) g.v.7.W i / 5.c.B.M.q.$.s s :.v.v.:.g Q s.}.-X;X<X&X_.N.,./ 8 o X $ r H U I L n = * 7 / ,.q.%.N : X aXaX",
"o 1 ] z.XX;X:X@XJ.} f ) f.x.4.E u / ,.c.B.M.8.$.p i ' g.g.:.g Q s.}.<X;X-X*X(.m.7./ 6 o   $ r H I I Z v = * 6 / ,.8.%.p : X aXaX",
"o < ] H.@X:X:X@XV.} f / 4.x.>.D i / 6.c.M.M.q.&.p i &.g.8.$.s Q s.}.#X>X<X=X(.N.5./ 0 o X % w H U L n 7 % $ 6 / ,.q.>.s :   aXaX",
"  1 ] H.$X>X5X#XP.} f D >.8.%./ N ( 6.c.M.M.q.&.p p ( <.6.( p ! k..X>X5X;X=X{.N.5./ 8 # @ * C K U L b & @ # 6 / 7.q.>.s :   aXaX",
". 1 X.P.#X0XwX4X Xy.a M %.<.,.&._ %.q.c.M.c.<.( i i / -.-.K p ! G.$X0XwX0X4X|.~.8./ 9 $ & 7 V Y U H r % X O 8 ) 8.x.>.N :   aXaX",
". 1 u. XqXpXpXqX Xt.g m @.<.<.-.%.8.x.M.c.q.;.K e e J -.-.J i ..I.$XrXpXrX5X=X).j.) 9 & 4 C A Y #.H r %   O y ` g.v.4.S :   aXaX",
". 1 u.Y.7XuXpX9XOXt.f p P -.<.6.0.q.c.c.w.0.*.J t e B @.#.M e ..P.6XiXpXuXeX>X).j.` 9 4 q Z L U T H r % X o 8 ' g.n.3.E :   aXaX",
". < u.U.6XiXiX7XY.r.a e H #.;.<.8.x.q.q.9.;.P n 5 5 n P P n 9 x I.8X9XiXeX6X#XW.h.) 9 * w Z L U I G t % X o 8 ` f.j.4.g :   aXaX",
". < x F.Y.8X8XY.I.| 9 = b H @.-.,.,.,.,.#.P G r * & w B n t 6 l S.Y.8X8X3X+X].l.4.E 0 & q C Z A H n 7 $ X X > W 4.3.' a - . aXaX",
"O ; l u.S.I.I.D.r.j , & t b F / / ( / / J n b 5 % % = w t = : d u.S.K.I.I.F.d.2.^ i : % = q w C b w > #   X : a ^ [ E u $ o aXaX",
"O - < l | u.| | l y , : 6 9 i p s s p p i e 5 > : : > 5 6 > : 3 h |  . . .....k a 2 % $ & 4 5 q 5 4 : $ @ @ - 8 a p u , # o aXaX",
"O - < y k z z k j j d u u a a i a a u i e e u u u 8 u u u u u y y 3 d h z k f u 9 6 > > 6 5 6 6 5 6 4 > 2 > 6 6 9 u 2 : # @ aXaX",
". - 3 k ! ] ] } ] ] ] ] ] ] [ ] ] ^ ^ ^ E ^ ^ ^ ] ] ] ] ] ] ~ E u < 1 a Q ^ W S p r r r r m N N N s N N N N N N s i 9 : # O aXaX",
". - a } a.k.k.k.k.z.z.k.k.k.k.k.s.p.p.3.3.1.3.p.a.s.k.k.k.k.s.y.k 1 y ! o.p.1.$.K J G J ( _ &.&._ _ $.&.&.$.$.$._ / N 6 $ O aXaX",
". , c a.V.'.'.'.'.'.'.'.'.'.'.'.'.V.V.n.n.n.V.V.Q.'.'.'.'.'.'.z.X.a k y.H.T.n.8.,.#.#.#.-.,.5.5.6.6.6.6.6.6.,.6.,.>./ e - X aXaX",
". 1 ~ z.[.@X*XXXXX}.}..XXXXX@X@X*X{.}.[.C.{.[.{.|.-X@X@X@X-X|.Q.a.~ [ k.'.{./.b.q.;.;.;.0.q.c.c.c.x.q.c.q.x.q.x.c.5._ p % . aXaX",
". , ] l.}.-X-X*X|.[.'.'.|.-X<X<X<X-X&X&X*X|.&X*X<X;X;X:X;X<X-X'.l.2.p.E.&X*X_.B.w.e.0.e.w.M.M.c.c.w.w.w.q.6.6.q.q.<.+.r : X aXaX",
"o 1 ~ z.{.*X*X&X[.z.z.V.[.&X<X<X<X<X<X*X*X-X*X<X<X:X,X:X:X<X&X{.V.l.n.'.-X*X_.C.B.w.w.w.M.M.M.w.e.e.e.0.<.%.%.-.<.<.( p $ X aXaX",
"X , ^ l./.&X{.).V.p.o.p.V.{.&X<X<X-X-X@X@X-X-X-X;X;X;X;X<X*X{.).W.V.W.[.-X&X(.N.b.w.c.c.c.M.w.e.9.9.9.;.@.( J ( *.%.K e % o aXaX",
"o , W f.R././.R.h.` S [ j.W.[.|.|.|.XXXXXX|.|.XXXXXXXXXXXX[.)./.~.T./.[.|.[./.m.c.c.w.c.q.w.e.;.*.=.*.T K r e M P I G q $ aXaXaX",
"o > E 1.f.n.l.g.{ s u S 1.j.V.E.!.'.].'.'.'.'.].'.Q.'.!.W.T.V.l.n.n.V.T.].V.j.g.5.5.5.5.5.,.-.@.I P P H n 5 4 w B H M 7 $ aXaXaX",
"aX: g ) { :.1.' Q u , u ^ { p.p.a.a.a.s.a.a.a.a.a.s.a.s.a.2.1.1.1.1.i.p.p.p.1.&._ &.&.&.&._ ( J B B M M t & % = r b b 5 aXaXaXaX",
"aXaXaXg S g S s u , - , u s E Q ! ! ! ! ! ! ! ! ! ! ! ! ! W E S S E W Q Q Q E s p p s p p p p e q t t 9 * % $ % 4 q 7 aXaXaXaXaX",
"aXaXaX, , , , , : $ # $ : , 1 1 3 1 y 1 1 y 1 1 1 1 y 1 1 1 , 1 , 1 , 1 1 1 2 > > , > > > > > : : % & % $ # @ $ $ % % aXaXaXaXaX",
"aXaXaXO O # O # @ O O # # O O O # O O # # O # O # # # O # O O # # # # # # # # # # O O # # # O # # O O # # O O # # # # aXaXaXaXaX",
"aXaXaXaXaXaXaXaXaXaXaXaXaXaXaXaXaXaXaXaXaXaXaXaXaXaXaXaXaXaXaXaXaXaXaXaXaXaXaXaXaXaXaXaX.   o X o o o . o O O O o aXaXaXaXaXaXaX"
};
