/* XPM */
static char *result[] = {
/* columns rows colors chars-per-pixel */
"44 50 85 1 ",
"  c #6FB12B473F2C",
". c #71D52B1B3F00",
"X c #6E602DDA40D8",
"o c #745C2DA24226",
"O c #78DC2EAE44B9",
"+ c #6EB1320942D1",
"@ c #743F32F64539",
"# c #7AEB32C9469B",
"$ c #71963841478F",
"% c #7ADD39F346F9",
"& c #768D36F24991",
"* c #7C7E35944979",
"= c #75AA3AD34A48",
"- c #7BFA3B854BF4",
"; c #7FA53EE55161",
": c #766A41804E83",
"> c #7A7940CA4ECC",
", c #76EF43A85091",
"< c #7C9044155209",
"1 c #7D0F49D7563C",
"2 c #7E174D735920",
"3 c #7EFF517B5C04",
"4 c #80823100470D",
"5 c #81CB35C84A85",
"6 c #829C3BA34D54",
"7 c #88AF3B8D4E65",
"8 c #87BE37A85048",
"9 c #83CF3DE75102",
"0 c #8AD63CFB53C2",
"q c #94993E215AB9",
"w c #A6203DF862E6",
"e c #AD283BCD64E9",
"r c #B22E3E186734",
"t c #B4A23F676825",
"y c #823E41534F6F",
"u c #8470437553D0",
"i c #89C444F25606",
"p c #8297499F5734",
"a c #89EC48EB56EB",
"s c #876046E05951",
"d c #8C4846595B5C",
"f c #840A4C7A5A80",
"g c #89924AFF5AA1",
"h c #956044A55C7A",
"j c #9ADD43125E45",
"k c #90ED4B675E59",
"l c #9ACE47F55EDC",
"z c #842252605E27",
"x c #8B0651635EA9",
"c c #8CD14E0A600D",
"v c #94EC46FD6191",
"b c #93994D166216",
"n c #9B754CB564F1",
"m c #860B54C060B1",
"M c #8BE954EE61DA",
"N c #84DC59F0639A",
"B c #8C5659D864FE",
"V c #8DC05ED56906",
"C c #92FF53766333",
"Z c #9A8C510B65C7",
"A c #9189596665D6",
"S c #9FF952EC6943",
"D c #93D35D8869F0",
"F c #9ABF5B406BB5",
"G c #A38B434D63C3",
"H c #ABA742476669",
"J c #A2CC4BA764CF",
"K c #AAE74ABD66DF",
"L c #ADAA471B688A",
"P c #A7C34B866966",
"I c #AE144CDA6891",
"U c #B433413E677A",
"Y c #B557435668CF",
"T c #B4CB4C0F698A",
"R c #A2FF52B76A80",
"E c #AD824FDD695C",
"W c #B39F50BD6A98",
"Q c #87BB609E6965",
"! c #8B6763A66CC7",
"~ c #94C261C66C77",
"^ c #95BD662770A6",
"/ c #9C79642A70C3",
"( c #9471697272A3",
") c #9C4A6AD3745B",
"_ c None",
/* pixels */
"_____________________$++$___________________",
"____________________==$@@___________________",
"____________________<<<:$=__________________",
"___________________==232=-<_________________",
"___________________=-zNN==<_________________",
"___________________->zN3=%=_________________",
"___________________-ufz1&%<_________________",
"__________________6;pMm2&<f_________________",
"_________________6-6xABp-pMm________________",
"_________________-6-xAN1=pfM________________",
"___X @@@_________-%7CAxy;<fz________________",
"+X+@@@oo#;2______%-iCBxp<<1f________________",
"+$=,,$@.@*<<_____%-aB~zp<<<2______%&&&&==,:$",
"_:122:$.o@*-<p___-6sA~Qp=2fs___=***=*-;111,,",
"_:<pzf<=oo##%<fM_y6uAFMu<zms_;-***#;<gNN3221",
"__:<1zNx<*ooo%ufxiuuA~M<;MMs;*#**5ugmV!Q322N",
"___=<M~^Bu#...#>pau9ADBu;cc9**-80uaMBQQ322m!",
"____<f~(^x%#%..#9uuuAFCd;cc9*8sggssgf22<2m!_",
"_____uxD~Aaayy#@O-uhZSJvqc;-6iBDVz<=%=<2m!__",
"_____iugxABxBAi%#*0qGHewGvc9ukD((N<;;ufB!___",
"______6uagxB^)^x00qweeeeevSFAMMMm3212ccB____",
"_______6yypx~)/DnvGerrrreeP/Dgpppfpf33______",
"_________yyupCABZJHLUtttrePFBfpfmMmf2_______",
"__________6%69sghnLYYYtYreGZcfMmmmf_________",
"___________y69997wKYYYYUteHnccc2<___________",
"_________ppy-*#*7qKTTTTTYLnbs99999__________",
"_______-=-=#OooO8jKITTWWTISCa65***%=________",
"______###@..ooo#0hJITWWWERZCa855*###;_______",
"____&@#O#....#6yibnJLIIIKnds960764#4*-______",
"___ooooo...#6uiapadhqnJJj05##*uuy544**-_____",
"__XoX o ...*ixCa9-5*50di965*O@-uu*#5**-_____",
"_ooo. oo#5457aii95##O*67*55*O@*%##5666*-____",
"oXoX@@:fgau768-77-#oOO674665@#oooo#6gs;-*___",
"Xo+@=>zB~Agi666y-%#oO577566%**#ooo#=ff<===__",
"X@=13zB~~Mau6-y__*OoO*99566__*#@#OO@<2<,:<1_",
"X$,2zzBBMg666____#OoO#975%%___**##Oo$===1z2:",
"+=111<fz_________OoOO#*54#%_____###oo@&;133,",
"_________________ooo.OO#45*_______@&--<<123,",
"_________________oo..#*555%_________<2p22___",
"_________________OOOo#7u-66_________________",
"_________________OOoo-us-66_________________",
"_________________Ooo@;uguu__________________",
"_________________oo @<pp<___________________",
"_________________ooo@=<u-___________________",
"_________________@oo@$>=%___________________",
"__________________@@$>>>=___________________",
"__________________@@$><1____________________",
"___________________@=<13____________________",
"____________________@:1_____________________",
"_____________________$______________________"
};
