/* XPM */
static char *result[] = {
/* columns rows colors chars-per-pixel */
"50 50 212 2 ",
"   c #010103",
".  c #03040B",
"X  c #0B0F1D",
"o  c #060712",
"O  c #1A151A",
"+  c #1B181C",
"@  c #0D141E",
"#  c #0E1122",
"$  c #0D1A24",
"%  c #1F1D24",
"&  c #14192D",
"*  c #121528",
"=  c #171D32",
"-  c #191E34",
";  c #1B1D39",
":  c #152333",
">  c #192236",
",  c #1C243B",
"<  c #1B2A3D",
"1  c #192A38",
"2  c #1C2D33",
"3  c #2F2B2C",
"4  c #242329",
"5  c #302D2D",
"6  c #2D2C31",
"7  c #312E33",
"8  c #343133",
"9  c #3D3434",
"0  c #363438",
"q  c #3A353B",
"w  c #3A3A3E",
"e  c #373C3F",
"r  c #403736",
"t  c #433B3B",
"y  c #493B3A",
"u  c #423837",
"i  c #192F41",
"p  c #1F3649",
"a  c #1D3345",
"s  c #222A45",
"d  c #252D4A",
"f  c #21394D",
"g  c #28354B",
"h  c #3F3C41",
"j  c #363843",
"k  c #2C3355",
"l  c #243D53",
"z  c #293B55",
"x  c #2D3659",
"c  c #2D3C5B",
"v  c #253751",
"b  c #323A5D",
"n  c #383C55",
"m  c #333D62",
"M  c #423C43",
"N  c #473E4C",
"B  c #4B3E4B",
"V  c #403741",
"C  c #2C434E",
"Z  c #394347",
"A  c #2B425C",
"S  c #2B4559",
"D  c #354C5D",
"F  c #374D53",
"G  c #34515C",
"H  c #3F5056",
"J  c #2E4561",
"K  c #2D4B63",
"L  c #2F4E68",
"P  c #344365",
"I  c #3C4365",
"U  c #344A64",
"Y  c #354269",
"T  c #3A446D",
"R  c #334C6B",
"E  c #3A496C",
"W  c #2F506A",
"Q  c #3C5C67",
"!  c #32526C",
"~  c #3D5C6A",
"^  c #365561",
"/  c #3B4671",
"(  c #3C4B74",
")  c #3F4C79",
"_  c #374D70",
"`  c #355572",
"'  c #3C5273",
"]  c #365976",
"[  c #3D5B75",
"{  c #3D547A",
"}  c #375B79",
"|  c #3B5C7C",
" . c #3E616A",
".. c #3C627E",
"X. c #4E4243",
"o. c #4A434C",
"O. c #464148",
"+. c #4C4454",
"@. c #4F4851",
"#. c #48445C",
"$. c #524753",
"%. c #554A56",
"&. c #554C59",
"*. c #5A4D5A",
"=. c #44555C",
"-. c #4B575C",
";. c #5D515E",
":. c #51595D",
">. c #434563",
",. c #495966",
"<. c #5F5161",
"1. c #515867",
"2. c #414C7B",
"3. c #404F70",
"4. c #405D75",
"5. c #42537D",
"6. c #425C7C",
"7. c #455877",
"8. c #645464",
"9. c #695769",
"0. c #675768",
"q. c #4B636B",
"w. c #426473",
"e. c #4D6A73",
"r. c #45677A",
"t. c #536B73",
"y. c #516F78",
"u. c #4B727F",
"i. c #53727D",
"p. c #52676F",
"a. c #3D5E80",
"s. c #3D6484",
"d. c #3F6888",
"f. c #435C83",
"g. c #4A578A",
"h. c #465D88",
"j. c #4A5B8C",
"k. c #475385",
"l. c #4E5D91",
"z. c #436384",
"x. c #4A6185",
"c. c #43658A",
"v. c #4B648C",
"b. c #436A8D",
"n. c #486B86",
"m. c #526E8F",
"M. c #4D7484",
"N. c #4B738A",
"B. c #537D8B",
"V. c #537788",
"C. c #4B6492",
"Z. c #456D91",
"A. c #4A6C94",
"S. c #4D6C99",
"D. c #506E94",
"F. c #526C9E",
"G. c #506698",
"H. c #447092",
"J. c #4B7095",
"K. c #4B739B",
"L. c #4A789D",
"P. c #547394",
"I. c #557A93",
"U. c #52749D",
"Y. c #58799A",
"T. c #526FA0",
"R. c #4E7CA4",
"E. c #5373A2",
"W. c #5874A2",
"Q. c #537AA4",
"!. c #5A7CA5",
"~. c #547DA8",
"^. c #5B7FA8",
"/. c #5B838E",
"(. c #55808D",
"). c #5C8693",
"_. c #5E8996",
"`. c #5D8A9A",
"'. c #568294",
"]. c #608B97",
"[. c #628E9E",
"{. c #60919E",
"}. c #4F80A8",
"|. c #5D82A3",
" X c #5382AC",
".X c #5C83AB",
"XX c #5F89A6",
"oX c #6085A6",
"OX c #6286AB",
"+X c #638BAC",
"@X c #618EA4",
"#X c #6393A4",
"$X c #6694AB",
"%X c #679AAB",
"&X c #6A9CAC",
"*X c #6798A7",
"=X c #638EB1",
"-X c #6693B4",
";X c #6996B5",
":X c #6B9CB3",
">X c #6D9DB9",
",X c #6DA0AF",
"<X c #6DA2B4",
"1X c #6FA1BB",
"2X c #71A7B7",
"3X c #71A4BC",
"4X c #74ABBC",
"5X c #75ACC3",
"6X c #79B3C7",
"7X c #7AB5C9",
"8X c #7EBBCD",
"9X c None",
/* pixels */
"9X9X9X9X9X9X9X9X9X9X9X9X9X9X9X9X9X9X9X9X9X9X9X9XQ  .G 9X9X9X9X9X9X9X9X9X9X9X9X9X9X9X9X9X9X9X9X9X9X9X",
"9X9X9X9X9X9X9X9X9X9X9X9X9X9X9X9X9X9X9X9X9X9X9XB.&X<X`.9X9X9X9X9X9X9X9X9X9X9X9X9X9X9X9X9X9X9X9X9X9X9X",
"9X9X9X9X9X9X9X9X9X9X9X9X9X9X9X9X9X9X9X9X9X9XM.&X7X8X4X{.9X9X9X9X9X9X9X9X9X9X9X9X9X9X9X9X9X9X9X9X9X9X",
"9X9X9X9X9X9X9X9X9X9X9X9X9X9X9X9X9X9X9X9X9XP I.4X8X8X8X&Xr.9X9X9X9X9X9X9X9X9X9X9X9X9X9X9X9X9X9X9X9X9X",
"9X9X9X9X9X9X9X9X9X9X9X9X9X9X9X9X9X9X9X9XL f.P.$X&X&X:X`.m.' 9X9X9X9X9X9X9X9X9X9X9X9X9X9X9X9X9X9X9X9X",
"9X9X9X9X9X9X9X9X9X9X9X9X9X9X9X9X9X9X9X< s.b.z.6.4.4...f.b.Z.L 9X9X9X9X9X9X9X9X9X9X9X9X9X9X9X9X9X9X9X",
"9X9X9X9X9X9X9X9X9X9X9X9X9X9X9X9X9X9X$ p | s.s.A.Y.Y.U.c.d.c.W 1 9X9X9X9X9X9X9X9X9X9X9X9X9X9X9X9X9X9X",
"9X9X9X9X9X9X9X9X9X9X9X9X9X9X9X9X9X, < ` | c.K.+X1X5X;XQ.b.s.} l , 9X9X9X9X9X9X9X9X9X9X9X9X9X9X9X9X9X",
"9X9X9X9X9X9X9X9X9X9X9X9X9X9X9X9XU P v K s.A.oX3X6X7X5X;XQ.c.` C J P 9X9X9X9X9X9X9X9X9X9X9X9X9X9X9X9X",
"9X9X9X9X9X9X9X9X9X9X9X9X9X9X9XB.B.| ` K c.E.+X3X&X#X2X>X.XS.] ! ' N.B.9X9X9X9X9X9X9X9X9X9X9X9X9X9X9X",
"9X9X9X9X9X9X9X9X9X9X9X9X9X9XV.&X*Xr.] ..A.|.=X[.q.=.B.*X+XQ.d.| ^ `.&X{.9X9X9X9X9X9X9X9X9X9X9X9X9X9X",
"9X9X9X9X9X9X9X9X9X9X9X9X9Xu.&X4X*Xr.S b.T.-X%Xy.O.8 Z ].;X~.K.! K '.<X2X_.9X9X9X9X9X9X9X9X9X9X9X9X9X",
"9X9X9X9X9X9X9X9X9X9X9X9XM.#X2X#XN.d.! H.E.;X%Xt.X.r w ).;X.XK.` s...'.>X:X'.9X9X9X9X9X9X9X9X9X9X9X9X",
"9X9X9X9X9X9X9X9X9X9X9X~ XX+X!.z.] c.` H.E.;X%Xt.X.u e ).;X|.K.` s.} [ P.oX$XN.9X9X9X9X9X9X9X9X9X9X9X",
"9X9X9X9X9X9X9X9X9X9Xm h.Y.Q.x.c W b.` b.!.>X&Xt.X.u w _.>XXXK.` d.} c _ P.|.D.( 9X9X9X9X9X9X9X9X9X9X",
"9X9X9X9X9X9X9X9X9XP f.A.L.A.6.m ! c.` A.$X5X&Xp.X.u w ).2X1X!.' d.` J E c.K.E.b.( 9X9X9X9X9X9X9X9X9X",
"9X9X9X9X9X9X9X9XK a.b.b.c.I.P.3.A ] 6.|.3X4X].-.X.u 0 y.&X4X&Xv.| U P n.I.N.d.Z.c.` 9X9X9X9X9X9X9X9X",
"9X9X9X9X9X9X9X: W z.s.L ^ #X$Xf.c ` A.1X2X_.,.y y 9 5 Z i.,X4XoXf.A Y Y.;XM.G ] d.} f 9X9X9X9X9X9X9X",
"9X9X9X9X9X9X9X9X1 a p 9XG *X+Xx.( C.Y.1X[.1.t y q 8 5 5 h M.2XoXU.5.( I.:Xu.9Xa p i $ 9X9X9X9X9X9X9X",
"9X9X9X9X9X9X9X9X9X9X9X9XF `.B.r.h.G.W.1X].-.y r 8 5 5 5 5 e.&XOXF.C.5.n.{.r.9X9X9X9X9X9X9X9X9X9X9X9X",
"9X9X9X9X9X9X9X9X9X9X9X9X1 Q D } S.F.W.>X].:.y r 5 5 5 3 5 e.&XoXF.F.c.! ~ C 9X9X9X9X9X9X9X9X9X9X9X9X",
"9X9X9X9X9X9X9X9X9X9X9X. & c x | R.Q.!.1X).:.y r 5 3 5 3 5 e.:XOXQ.~.Z.P m s # 9X9X9X9X9X9X9X9X9X9X9X",
"9X9X9X9X9X9X9X9X9X9X9X. - / m a.R. X~.1X].-.9 5 5 5 5 3 5 e.:XOX~. XZ._ ( k #   9X9X9X9X9X9X9X9X9X9X",
"9X9X9X9X9X9X9X9X9X9X9X. ; / Y a.R.~.!.>X].=.3 3 5 5 5 5 8 y.:XOX X XZ._ ( k #   9X9X9X9X9X9X9X9X9X9X",
"9X9X9X9X9X9X9X9X9X9X  . & m c | R.~.!.1X*Xy.e 5 3 5 5 8 H /.2X+X~.~.d.R m d X     9X9X9X9X9X9X9X9X9X",
"9X9X9X9X9X9X9X9X9X9X.   X d s } R.~.!.5X6X*Xe.j 5 5 5 H /.4X6X+X~.~.K.J d ; o .   9X9X9X9X9X9X9X9X9X",
"9X9X9X9X9X9X9X9X9X9X& X & m b } K.E.W.1X8X7X%Xe.e 8 F /.4X8X6XOXT.E.d.R Y a X * = 9X9X9X9X9X9X9X9X9X",
"9X9X9X9X9X9X9X9Xp P P < - / / { l.T.Q.+X5X8X6X&Xe.-.).4X8X6X>X.XT.F.f./ a.k & x P A p 9X9X9X9X9X9X9X",
"9X9X9X9X9X9X9X] s.c.a.v ; ) h.a.a.S.~. X-X5X8X6X:X*X5X8X6X>X.X XR.h.a.a.f.x - ( b.d.| L 9X9X9X9X9X9X",
"9X9X9X9X9X9X} K.~.~.A.z , ) S.c.R d.R. X X=X5X8X8X8X8X7X>X.X X XK.` ] A.l.x : [ U.~.R.d.W 9X9X9X9X9X",
"9X9X9X9X9X` K.}..XoXP.S , ) S.a.c L Z.}. X~.OX1X5X5X5X;X.X}. XR.a.z ! C.l.x > r.|..X~.R.s.L 9X9X9X9X",
"9X9X9X9XS s.K.J.oX&X@XG , ) l.) m ( { Z.R.E.W.!.^.^.^.E.E.~.L.| { m T j.h.x < M.%X$XU.K.Z.` 9X9X9X9X",
"9X9X9X9X: S K J ~ r.Q 2 , ) l.k.m 2.2.E d.S.T.~.~. X XE.K.A.} _ 2.T 3.g.g.x & F w. .U L K p 9X9X9X9X",
"9X9X9X9X9X9X9X9X9X9X: @ 6 ( k.k.2.m n s z { C.R.}.}.~.T.f.R d k b T 2.g.k.b & $ 9X9X9X9X9X9X9X9X9X9X",
"9X9X9X9X9X9X9X9X9X9X9X- b 3.( Y >.#.h 4 6 n ( 6.z.z.s.[ I j 4 7 B #.m 3.' T d * 9X9X9X9X9X9X9X9X9X9X",
"9X9X9X9X9X9X9X9X9X9X9Xs 5.P.w.g B *.o.7 0 N @.+.+.+.+.+.+.h 3 M *.%.j D N.v.m , 9X9X9X9X9X9X9X9X9X9X",
"9X9X9X9X9X9X9X9X9X9X9Xd x.:X'.-.$.;.@.7 q %.0.9.8.8.8.9.8.o.6 h *.*.B e.&X^.E ; 9X9X9X9X9X9X9X9X9X9X",
"9X9X9X9X9X9X9X9X9X9X9Xd v.1X_.1.*.%.X.7 q %.8.0.8.*.8.8.*.o.6 h $.<.%.V.:XoXE ; 9X9X9X9X9X9X9X9X9X9X",
"9X9X9X9X9X9X9X9X9X9X9Xd v.1X_.1.*.*.o.8 q B %.;.8.0.8.*.$.M 8 O.@.<.%.y.:XoXE ; 9X9X9X9X9X9X9X9X9X9X",
"9X9X9X9X9X9X9X9X9X9X9Xg m.1X`.,.$.<.%.B q w o.*.8.0.<.$.M q h o.*.*.N M.2X+X3.6 9X9X9X9X9X9X9X9X9X9X",
"9X9X9X9X9X9X9X9X9X9X9XG @X6X$X7.+.<.*.@.h 0 0 M B B B V 0 q O.&.8.&.>.I.5X2XM.C 9X9X9X9X9X9X9X9X9X9X",
"9X9X9X9X9X9X9X9X9X9X9XQ <X7X>XP.7.1.$.N q 6 % O O O + O 4 7 h +.&.1.z..X5X7XB.G 9X9X9X9X9X9X9X9X9X9X",
"9X9X9X9X9X9X9X9X9X9X9X .&X5X-X~.K.| g 4 O 9X9X9X9X9X9X9X9X+ + 4 P b.Q..X1X5X(.9X9X9X9X9X9X9X9X9X9X9X",
"9X9X9X9X9X9X9X9X9X9X9XQ {.+X.X X XJ.A 9X9X9X9X9X9X9X9X9X9X9X9X1 | R. X X.X%XM.9X9X9X9X9X9X9X9X9X9X9X",
"9X9X9X9X9X9X9X9X9X9X9X9Xr.H.Q. X~.C.c 9X9X9X9X9X9X9X9X9X9X9X9X> { S. X XL.n.9X9X9X9X9X9X9X9X9X9X9X9X",
"9X9X9X9X9X9X9X9X9X9X9X9X9XW b.L.F.g.x 9X9X9X9X9X9X9X9X9X9X9X9X- ) C.E.K.| 9X9X9X9X9X9X9X9X9X9X9X9X9X",
"9X9X9X9X9X9X9X9X9X9X9X9X9X9X! f.j.g.x 9X9X9X9X9X9X9X9X9X9X9X9X- ) g.h.{ 9X9X9X9X9X9X9X9X9X9X9X9X9X9X",
"9X9X9X9X9X9X9X9X9X9X9X9X9X9X9Xm 2.2.k 9X9X9X9X9X9X9X9X9X9X9X9X= / 2.T 9X9X9X9X9X9X9X9X9X9X9X9X9X9X9X",
"9X9X9X9X9X9X9X9X9X9X9X9X9X9X9X9Xx m s 9X9X9X9X9X9X9X9X9X9X9X9X* b x 9X9X9X9X9X9X9X9X9X9X9X9X9X9X9X9X",
"9X9X9X9X9X9X9X9X9X9X9X9X9X9X9X9X9X; # 9X9X9X9X9X9X9X9X9X9X9X9Xo = 9X9X9X9X9X9X9X9X9X9X9X9X9X9X9X9X9X"
};
