/* XPM */
static char *result[] = {
/* columns rows colors chars-per-pixel */
"50 50 203 2 ",
"   c #0D90076E0B4D",
".  c #143105A2132E",
"X  c #1BB2044315F3",
"o  c #12A80AA51062",
"O  c #1AA00AD4164E",
"+  c #1CFB066E1D88",
"@  c #1C050B5B1AED",
"#  c #14E4125D136C",
"$  c #1CEA12911B92",
"%  c #2EC506A91700",
"&  c #22100A221645",
"*  c #217A05E71A8E",
"=  c #288902D51E57",
"-  c #204B0F3E1C3D",
";  c #2BE20BBB1CEC",
":  c #257D065D16A1",
">  c #36030D5C120E",
",  c #23EF12C91D57",
"<  c #2F8810D61CD1",
"1  c #2A951CB71DCF",
"2  c #32D0113B1E2D",
"3  c #32431BA61B54",
"4  c #33DE20241B52",
"5  c #1EDE0CFD227A",
"6  c #230105C522AF",
"7  c #24590CD92328",
"8  c #28300B0E270C",
"9  c #294F053B2F48",
"0  c #26900A4F2A4F",
"q  c #2C410CA22BC5",
"w  c #289905682A97",
"e  c #373F0E2A21CD",
"r  c #34380E1A2A80",
"t  c #33FF064C254A",
"y  c #2497116A231C",
"u  c #293313C22522",
"i  c #2C491BBA2585",
"p  c #2C2713AA2B5D",
"a  c #2CAF1A092C6B",
"s  c #25341AE42520",
"d  c #3B9A0FE92153",
"f  c #30E118FA220A",
"g  c #382B1C762722",
"h  c #319213BE2DB5",
"j  c #332E1BBF2B59",
"k  c #3D441F69280E",
"l  c #361611E622B6",
"z  c #2D0B0E8233A7",
"x  c #28320A333911",
"c  c #24CD068430E0",
"v  c #32D20CA53345",
"b  c #3BAE08D42FBE",
"n  c #3028067B3C32",
"m  c #356A0AD33DB5",
"M  c #39010B0237FE",
"N  c #28CD1139308B",
"B  c #337413AA3210",
"V  c #3A0F137236B3",
"C  c #34521A7633A0",
"Z  c #3AD31B84353D",
"A  c #341D0FC03D17",
"S  c #3A5012B83AA6",
"D  c #36C21C553A1E",
"F  c #3C3B1ADD3A8F",
"G  c #2A1720B826C7",
"H  c #2E611FE927E5",
"J  c #3E29263E201B",
"K  c #332B22412C1A",
"L  c #3A8320552F9A",
"P  c #3240222D2154",
"I  c #351C228F364B",
"U  c #38DE23A734B1",
"Y  c #3B902A4834D8",
"T  c #3B7A24403BD4",
"R  c #3C7029DC3C2A",
"E  c #347F277B3701",
"W  c #3C1A383A3EBC",
"Q  c #44270ADD1D6E",
"!  c #488A180B1F5D",
"~  c #5E14162D1E1C",
"^  c #438014492BB0",
"/  c #4EB2154A2C0F",
"(  c #4704186B2201",
")  c #51A817F2215D",
"_  c #57EF1CBA257A",
"`  c #543C19932D96",
"'  c #5BA11E4D2B11",
"]  c #44A21B753134",
"[  c #40D7142C3DE7",
"{  c #403C1C8E393C",
"}  c #498F16B93832",
"|  c #54361E5232D0",
" . c #538316643852",
".. c #56381B8539C3",
"X. c #64AE1D322862",
"o. c #619C1C1D2769",
"O. c #72CD1C3B24E1",
"+. c #66771EAF3628",
"@. c #6FCF1BFD31A6",
"#. c #67BF1C6C3F9F",
"$. c #43F426A22816",
"%. c #45CC23AE3466",
"&. c #416D21683BF3",
"*. c #52C425D5330F",
"=. c #5C5D2A2D3169",
"-. c #5DE4215D3B64",
";. c #728423B22C03",
":. c #6BE6214932C9",
">. c #67D125763737",
",. c #7EE9270A3ECB",
"<. c #79142B4C3844",
"1. c #34C20BCE44E5",
"2. c #2D9215474362",
"3. c #3E44169440F9",
"4. c #3D401D37406E",
"5. c #333510384800",
"6. c #3DB412C54B5D",
"7. c #3F401EDF5EA5",
"8. c #3C2128123FDB",
"9. c #3F632E984992",
"0. c #3F40215F43B5",
"q. c #443F158643EA",
"w. c #4BCF14C141E8",
"e. c #42AA1C2B435D",
"r. c #443A19324857",
"t. c #4B6F1C6D4C0E",
"y. c #43D9105B4A4F",
"u. c #509A19AF4D1E",
"i. c #5B671E3647CF",
"p. c #567718A246E9",
"a. c #485C1C2A56B2",
"s. c #57AE187B5D69",
"d. c #56A217345494",
"f. c #607F1A3951CB",
"g. c #69761EC05875",
"h. c #4374234744E7",
"j. c #410D2C0D40AB",
"k. c #4B3F210B4CDE",
"l. c #46CA2C074B5E",
"z. c #49CE2C194C26",
"x. c #451A24214DB8",
"c. c #5C3B2409451A",
"v. c #5CE02E7E4724",
"b. c #59EB229949D6",
"n. c #4CA0372B4898",
"m. c #44A835A740FC",
"M. c #5670320840B5",
"N. c #521B389941C5",
"B. c #5E3734AC4EA0",
"V. c #4DDE2A0D51EB",
"C. c #40642AF1582E",
"Z. c #49FF23ED5505",
"A. c #5289238655A4",
"S. c #506427D65229",
"D. c #587823E45B1D",
"F. c #5ADB2C3F5EE0",
"G. c #53463AA65322",
"H. c #57CD320C5D0D",
"J. c #66C026EC4DF1",
"K. c #6B82255A4B05",
"L. c #661128FF4913",
"P. c #653B231C43AD",
"I. c #79AF276F3FDF",
"U. c #750120274CA2",
"Y. c #740E27284561",
"T. c #6B7E3180483A",
"R. c #6014246E5131",
"E. c #64BC295C569D",
"W. c #67A933505485",
"Q. c #56A5180C6DDF",
"!. c #53A114AD6716",
"~. c #4C7824F661E3",
"^. c #5A4A25C16039",
"/. c #5B452DBD6253",
"(. c #503D2C776FD9",
"). c #5D0633AA63B5",
"_. c #5BC63BA263B0",
"`. c #4F862AE57261",
"'. c #62442DEC6991",
"]. c #77262A4C6114",
"[. c #6AC6315D7260",
"{. c #592A42F0581B",
"}. c #7C1C446B63CD",
"|. c #703A466768B6",
" X c #798A46E06DA9",
".X c #7AD740787FDB",
"XX c #772D43C17BF8",
"oX c #711C57C775CE",
"OX c #70435B9F7642",
"+X c #86F82BC93401",
"@X c #92162E4A36D2",
"#X c #958F3031364E",
"$X c #92F12CEE4776",
"%X c #82C329245352",
"&X c #93D62E115385",
"*X c #B34335FA4AE5",
"=X c #A70D33E65426",
"-X c #B7BA3924530C",
";X c #CD9F44D5579E",
":X c #D01245746383",
">X c #7F0466D78093",
",X c #845A6D2587B8",
"<X c None",
/* pixels */
"<X<X<X<X<X<X<X<X<X<X<X<X<X<X<X<X<X<X<X<X<X<X<X<X<X<X<X<X<X<X<X<X<X<X<X<X<X<X<X<X<X<X<X<X<X<X<X<X<X<X",
"<X<X<X<X<X<X<X<X<X<X<X<X<X<X<X<X<X<X<X<X<X<X<X<X<X<X<X<X<X<X<X<X<X<X<X<X<X<X<X<X<X<X<X<X<X<X<X<X<X<X",
"<X<X<X<X<X<X<X<X<X<X<X<X<X<X<X<X<X<X<X<X<X<X<X<X<X<X<X<X<X<X<X<X<X<X<X<X<X<X<X<X<X<X<X<X<X<X<X<X<X<X",
"<X<X<X<X<X<X<X<X<X<X<X<X<X<X<X<X<X<X<X<X<X<Xt.<X<X<X<Xq.<X<X<X<X<X<X<X<X<X<X<X<X<X<X<X<X<X<X<X<X<X<X",
"<X<X<X<X<X<X<X<X<X<X<X<X<X<X<X<X<X<X<X<X<X@ e.<X<X<X<Xq.6 <X<X<X<X<X<X<X<X<X<X<X<X<X<X<X<X<X<X<X<X<X",
"<X<X<X<X<X<X<X<X<X<X<X<X<X<X<X<X<X<X<X<X<X<X* <X<X<X<XV 8 <X<X<X<X<X<X<X<X<X<X<X<X<X<X<X<X<X<X<X<X<X",
"<X<X<X<X<X<X<X<X<X<X<X<X<X<X<X<X<X<X<X<X<X<X> > <X<X..] <X<X<X<X<X<X<X<X<X<X<X<X<X<X<X<X<X<X<X<X<X<X",
"<X<X<X<X<X<X<X<X<X<X<X<X<X<X<X<X7 z <X<X<X<Xi H U &.F V <X<X<X<Xa 8 <X<X<X<X<X<X<X<X<X<X<X<X<X<X<X<X",
"<X<X<X<X<X<X<X<X<X<X<X<X<X<X<X<X5 b } :.<.H G %.:.@.] 7 r ' ;.! r 6 <X<X<X<X<X<X<X<X<X<X<X<X<X<X<X<X",
"<X<X<X<X<X<X<X<X<X<X<X<X<X<X<X<X6 7 | @X+XH K =.;.O.~ 2 - ;.#XX.: 6 <X<X<X<X<X<X<X<X<X<X<X<X<X<X<X<X",
"<X<X<X<X<X<X<X<X<X<X<X<X<X<X<X<X<Xr o.+.$.E N.=.' *._ ! , < ;.X./ M <X<X<X<X<X<X<X<X<X<X<X<X<X<X<X<X",
"<X<X<X<X<X<X<X<X<X<X<X<X<X<X<X<X<X6 ( j Y W Y E E R U g , & ; ) b <X<X<X<X<X<X<X<X<X<X<X<X<X<X<X<X<X",
"<X<X<X<X<X<X<X<X<X<X<X<X<X<X<X<X<X<X} U k d >.L.u.P.,.+X*.2 7 ^  .<X<X<X<X<X<X<X<X<X<X<X<X<X<X<X<X<X",
"<X<X<X<X<X<X<X<X<X<X<X<X<X<X<X<X<X<X&.&.E t.$X%X=X-X=X*X#.6 a S +.<X<X<X<X<X<X<X<X<X<X<X<X<X<X<X<X<X",
"<X<X<X<X<X<X<X<X<X<X<X<X<X<X<X<X<X<Xs R l.`.u.w.' ' w.w.5.N a [ <X<X<X<X<X<X<X<X<X<X<X<X<X<X<X<X<X<X",
"<X<X<X<X<X<X<X<X<X<X<X<X<X<X<X<X<X<X<XU C.(.D.e.9 n z v x z F F <X<X<X<X<X<X<X<X<X<X<X<X<X<X<X<X<X<X",
"<X<X<X<X<X<X<X<X<X<X<X<X<X<X<X<X<X<X<Xj.~.Z.^.q.n m 0 0 0 B c.M.<X<X<X<X<X<X<X<X<X<X<X<X<X<X<X<X<X<X",
"<X<X<X<X<X<X<X<X<X<X<X<X<X<X<X<X<Xm.M.J.E.l.a.1.m A 9 9 v ..Y.-.j <X<X<X<X<X<X<X<X<X<X<X<X<X<X<X<X<X",
"<X<X<X<X<X<X<X<X<X<X<X<X<X<X| , 1 ] i.%X<XV.u.y.6.6.V p k.b.I.P.] @ , ] <X<X<X<X<X<X<X<X<X<X<X<X<X<X",
"<X<X<X<X<X<X<X<X<X<X<X<X<X<X<X<X<X&X$X<X<Xk.f.!.Q.!.d./ h.<X<X&X&X<X<X<X<X<X<X<X<X<X<X<X<X<X<X<X<X<X",
"<X<X<X<X<X<X<X<X<X<X<X<X<X<X<X<X;X<X<X<X<Xg.R.).[.[.F.c.i.a.<X<X<X:X<X<X<X<X<X<X<X<X<X<X<X<X<X<X<X<X",
"<X<X<X<X<X<X<X<X<X<X<X<X<X<X<X<X<X<X<X2.y.U.V.oX>X,XOXH.Y.a.7.<X<X<X<X<X<X<X<X<X<X<X<X<X<X<X<X<X<X<X",
"<X<X<X<X<X<X<X<X<X<X<X<X<X<X<X<X<X<X<X7 ].K.V. X}.}.|.Z.U.i.5.<X<X<X<X<X<X<X<X<X<X<X<X<X<X<X<X<X<X<X",
"<X<X<X<X<X<X<X<X<X<X<X<X<X<X<X<X<X<X<X%.L.t.T W.T.B.B.D p.L.y.<X<X<X<X<X<X<X<X<X<X<X<X<X<X<X<X<X<X<X",
"<X<X<X<X<X<X<X<X<X<X<X<X<X<X<X<X<X<X<X<XF D N h.F h.C p v S A <X<X<X<X<X<X<X<X<X<X<X<X<X<X<X<X<X<X<X",
"<X<X<X<X<X<X<X<X<X<X<X<X<X<X<X<X<X<X<Xa 8.C p e.B 4.a B p I y <X<X<X<X<X<X<X<X<X<X<X<X<X<X<X<X<X<X<X",
"<X<X<X<X<X<X<X<X<X<X<X<X<X<X<X<X<X<X<X5 5 5 q D p D p a , 1 O o <X<X<X<X<X<X<X<X<X<X<X<X<X<X<X<X<X<X",
"<X<X<X<X<X<X<X<X<X<X<X<X<X<X<X<X<X<X$ $ s O q u 0 p p C J K @ . <X<X<X<X<X<X<X<X<X<X<X<X<X<X<X<X<X<X",
"<X<X<X<X<X<X<X<X<X<X<X<X<X<X<X<X<Xe.8 y @ @ % K H a K $.<.n.8 6 e.<X<X<X<X<X<X<X<X<X<X<X<X<X<X<X<X<X",
"<X<X<X<X<X<X<X<X<X<X<X<X<X<X<X<XC N <XN 8 p Q & @ , 3 $.>.{.B <X7 7 <X<X<X<X<X<X<X<X<X<X<X<X<X<X<X<X",
"<X<X<X<X<X<X<X<X<X<X<X<X<X<X<X<Xu <X<XB N p t * + 0 4 P N.G.h.<X<X<X@ <X<X<X<X<X<X<X<X<X<X<X<X<X<X<X",
"<X<X<X<X<X<X<X<X<X<X<X<X<X<X<XC <Xi $ <XS D = X O y 3 i {.e.<X7 o <Xo <X<X<X<X<X<X<X<X<X<X<X<X<X<X<X",
"<X<X<X<X<X<X<X<X<X<X<X<X<X<XF p $ a <X<XS F 7 : X y 3 i G.S <X<X<XO <XS <X<X<X<X<X<X<X<X<X<X<X<X<X<X",
"<X<X<X<X<X<X<X<X<X<X<X<X<X<XF 8   <X<X# # <Xj.; e ^ f a C <Xk.<X<X<XB D.<X<X<X<X<X<X<X<X<X<X<X<X<X<X",
"<X<X<X<X<X<X<X<X<X<X<X<X<X<XF . <X<X<X<X<X<Xz.U 8 l j R B <X<Xe.<X<XV t.v <X<X<X<X<X<X<X<X<X<X<X<X<X",
"<X<X<X<X<X<X<X<X<X<X<X<X<X<XZ <X<X<Xo <X<XC T G.S.S.8.I B <X<Xv <X<Xp B - <X<X<X<X<X<X<X<X<X<X<X<X<X",
"<X<X<X<X<X<X<X<X<X<X<X<X<X<Xy <X<X<X@ <X<X, <X_.XX.Xl.<XO <X<Xv <X<Xv <Xp <X<X<X<X<X<X<X<X<X<X<X<X<X",
"<X<X<X<X<X<X<X<X<X<X<X<X<Xy <Xh <Xy <X<X<Xy <X<XH.F.h.<X<X<X<X<Xq <Xh <X<X<X<X<X<X<X<X<X<X<X<X<X<X<X",
"<X<X<X<X<X<X<X<X<X<X<X<X<X<XF y <XB <X<X<Xh <X<XZ r.4.<X<X@ <X<Xv <X<X8 <X<X<X<X<X<X<X<X<X<X<X<X<X<X",
"<X<X<X<X<X<X<X<X<X<X<X<X<Xh.h <Xs <X<X<X<Xp <X<Xh e.<X<X<X6 <X<X<XB <X<XB <X<X<X<X<X<X<X<X<X<X<X<X<X",
"<X<X<X<X<X<X<X<X<X<X<X<Xh.<X<X<Xh <X<X<XC <X<X<XA.[.<X<X<X8 <X<X<Xv <X<X<Xp <X<X<X<X<X<X<X<X<X<X<X<X",
"<X<X<X<X<X<X<X<X<X<X<Xp <X<X<X<XB <X<Xk.<X<X<X<XA.'.).<X<X<XS <X<X<X<X<X<X<Xk.<X<X<X<X<X<X<X<X<X<X<X",
"<X<X<X<X<X<X<X<X<X<Xp <X<X<X<X<X<X<X<X<X<X<X<Xz.k.<X/.<X<X<X<XB <X<X<X<X<X<X<X6 <X<X<X<X<X<X<X<X<X<X",
"<X<X<X<X<X<X<X<X<X<Xj <X<X<X<XB <X<Xv <X<X<X<XV.<X<XZ.<X<X<X<Xq <X<X<X<X<X<X<X<XF <X<X<X<X<X<X<X<X<X",
"<X<X<X<X<X<X<X<X<XV <X<X<X<Xp <X<X<X<X<X<X<X<X<X<X<X<Xk.<X<X<X<X<X<X<X<X$ <X<X<Xr <X<X<X<X<X<X<X<X<X",
"<X<X<X<X<X<X<X<Xu <X<X<X<X<X<X<X<X<X<X<X<X<Xu <X<X<X<Xr.<X<X<X<X<X<X<X<X<X<X<X<X<X<X<X<X<X<X<X<X<X<X",
"<X<X<X<X<X<X<X<X<X<X<X<X<X<X<X<X<X<X<X<X<X6 <X<X<X<X<X<X6 <X<X<X<X<X<X<X<X<X<X<X<X<X<X<X<X<X<X<X<X<X",
"<X<X<X<X<X<X<X<X<X<X<X<X<X<X<X<X<X<X<X<X<X<X<X<X<X<X<X<X<Xm <X<X<X<X<X<X<X<X<X<X<X<X<X<X<X<X<X<X<X<X",
"<X<X<X<X<X<X<X<X<X<X<X<X<X<X<X<X<X<X<X<X<X<X<X<X<X<X<X<X<X<X<X<X<X<X<X<X<X<X<X<X<X<X<X<X<X<X<X<X<X<X",
"<X<X<X<X<X<X<X<X<X<X<X<X<X<X<X<X<X<X<X<X<X<X<X<X<X<X<X<X<X<X<X<X<X<X<X<X<X<X<X<X<X<X<X<X<X<X<X<X<X<X"
};
