/* XPM */
static char *result[] = {
/* columns rows colors chars-per-pixel */
"50 50 179 2 ",
"   c #051F2D",
".  c #07202E",
"X  c #12222E",
"o  c #062334",
"O  c #0C2535",
"+  c #0C2738",
"@  c #0E293A",
"#  c #132736",
"$  c #152837",
"%  c #1A2937",
"&  c #15293A",
"*  c #1E2B39",
"=  c #1C2733",
"-  c #242B35",
";  c #292D35",
":  c #242D3A",
">  c #292F3B",
",  c #2C3137",
"<  c #26313D",
"1  c #2C313C",
"2  c #33343E",
"3  c #3A373D",
"4  c #36383E",
"5  c #3D393F",
"6  c #413A3E",
"7  c #152E41",
"8  c #183247",
"9  c #2C3440",
"0  c #273749",
"q  c #2D3A4A",
"w  c #343741",
"e  c #393740",
"r  c #353A44",
"t  c #3D3B42",
"y  c #3C3F48",
"u  c #343C48",
"i  c #2E3F55",
"p  c #263B51",
"a  c #413D44",
"s  c #423F49",
"d  c #3E4046",
"f  c #3E414B",
"g  c #2C4056",
"h  c #3B4555",
"j  c #33465C",
"k  c #3B4E68",
"l  c #385B7F",
"z  c #315272",
"x  c #444146",
"c  c #45434B",
"v  c #4A454C",
"b  c #47484E",
"n  c #4D494E",
"m  c #4B4345",
"M  c #514B4E",
"N  c #424551",
"B  c #4B4750",
"V  c #454955",
"C  c #4D4C52",
"Z  c #4B4D59",
"A  c #464B5D",
"S  c #524E54",
"D  c #524F58",
"F  c #4F515B",
"G  c #545056",
"H  c #5A5256",
"J  c #555259",
"K  c #5C555B",
"L  c #5E585E",
"P  c #60575C",
"I  c #615A5E",
"U  c #4A4F60",
"Y  c #4E576A",
"T  c #455269",
"R  c #525663",
"E  c #5A5761",
"W  c #5E5A63",
"Q  c #525B6E",
"!  c #5C5D6C",
"~  c #495F7E",
"^  c #445A76",
"/  c #545E73",
"(  c #655D62",
")  c #685F63",
"_  c #625E69",
"`  c #4D627F",
"'  c #536076",
"]  c #54647D",
"[  c #59657E",
"{  c #676067",
"}  c #6B6266",
"|  c #64606A",
" . c #6E6569",
".. c #70666B",
"X. c #72696E",
"o. c #636474",
"O. c #6A6671",
"+. c #6E6A73",
"@. c #6B6A7A",
"#. c #66697C",
"$. c #736C73",
"%. c #786F76",
"&. c #726E79",
"*. c #787077",
"=. c #76717A",
"-. c #7B747C",
";. c #355C82",
":. c #3C5F83",
">. c #4B6383",
",. c #496689",
"<. c #546682",
"1. c #556885",
"2. c #556C8C",
"3. c #5A6F8F",
"4. c #446C96",
"5. c #536D92",
"6. c #4F7098",
"7. c #587295",
"8. c #537299",
"9. c #59769C",
"0. c #5A789F",
"q. c #6F7081",
"w. c #63718E",
"e. c #6D738B",
"r. c #7B7681",
"t. c #7F7984",
"y. c #697693",
"u. c #647A9E",
"i. c #6C7C9B",
"p. c #617495",
"a. c #5077A2",
"s. c #5A7BA5",
"d. c #527DAC",
"f. c #5C7FAA",
"g. c #5479A5",
"h. c #667DA3",
"j. c #827B85",
"k. c #847E89",
"l. c #5B81AF",
"z. c #5684B6",
"x. c #5D84B2",
"c. c #5D89BB",
"v. c #6C87AF",
"b. c #6482AC",
"n. c #6488B6",
"m. c #6D88B2",
"M. c #628BBC",
"N. c #698DBC",
"B. c #578FC9",
"V. c #598FC8",
"C. c #568DC5",
"Z. c #5D93CD",
"A. c #5E97D3",
"S. c #608FC4",
"D. c #6291C6",
"F. c #6294CC",
"G. c #6A95CA",
"H. c #6297D1",
"J. c #649AD4",
"K. c #659EDA",
"L. c #66A0DE",
"P. c #68A0DD",
"I. c #67A3E3",
"U. c #68A6E7",
"Y. c #67A7E8",
"T. c #68A7E8",
"R. c #67A9EC",
"E. c #69AAED",
"W. c #6AACF1",
"Q. c #86818C",
"!. c #89828E",
"~. c #8B8592",
"^. c #8E8996",
"/. c #8F8A98",
"(. c #908B97",
"). c #928D9B",
"_. c #95909E",
"`. c #9692A0",
"'. c None",
/* pixels */
"'.'.'.'.'.'.'.} I H S B b v B S H (  ..... . .} ) I J S S S F S S F C S K ) ..................} P M ",
"'.'.'.'.'.'...} L v e 1 > < w e v K ) } ....X.$.$.} L G Z S C S S G J W | X.X.%.X.%.X.X.X.%.X.....I ",
"3 3 3 m K } ..} H y > > 1 > 2 3 x S I )  .*.j.Q.k.-.| G C F F S C F | =.t.v.-.k.k.!.k.k.!.k.j.-.X.} ",
"v B B J ( X.X.) S w > 2 e t t t x S E } $.j.~.(.(.k.O.J S C S S F K +.!.(.(.(.(.(.(.(.(.(.(.(.k.*.X.",
"_ +.$.&.-.-.$.L c > > e 6 a 6 a B _ &.r.j.~.).`._.~.&.L J S C G G ) -.^._._._._._._._._._._._.(.!.*.",
"t.~.^.^.^.~.&.S e : > e t a e a D =.~././.(.)._.).!.*.) L G G J P } -.(._._._.)._._._._._._._.).(.!.",
"^._._.)._.^.&.B 2 > 2 5 a e 5 e J r.).`.`.`._.(.~.v.*. .I L L L ) ..j.^._._._._._._._._._._._._.).!.",
")._.`.`._./.&.B 2 3 3 5 a a t a J r.(.`.).`.).^.-...X. .} } { { ..X.-.^._._._._._._._._._._._._._.~.",
"_._._._._./.&.C e a a 3 a a x v ( j.(.`.`.`.`.Q.X.) I ) } } ........-.Q.(.)._._._._._._._._._._._.~.",
"_._._._.).^.&.C a e a a s B S L  .k.)._._.`.).t.I m c H ( } ....} ..X.*.Q.(._._._._._._._._._._._.!.",
"_._._._._./.=.H v v M J W _ ..%.-.k.~.~.Q.~.Q.&.M , 4 c K ) } ........X.-.^._._.)._._._._._._._._.!.",
"_._.)._._./.t.} P I O.r.j.k.k.k.k.k.-.&.O.o.| E c , < r M L } } ....} ..-.~._._._._._.)._._.)._._.!.",
"_._._.).).^.j...} ..-.~.).)._.).(.j.X.L n c m x d 4 : < d G ( } ....} } *.!.(.)._._._._._.).(.(.^.j.",
"_._._.(.~.j.%... .X.j.^._._._._.(.j. .H x 5 5 t 5 4 - - d G I ....} } ( ..-.Q.(._._._._.(.(.j.j.*.X.",
"/.)./.~.-.X..... ...-.~.).).).).~.j. .H x t t t t 4 < g F / | ....} ( L I  .*.Q.(.).)._.).!.-...( K ",
"~.t.r.@._ I I  .....%.j.j.k.j.k.j.=. .H v t 6 t 5 3 2 k 6.l.y.+...} } ( L L } %.j.~._._.).(.j.%.} I ",
"-. .L G B M P )  .....X.X.X.X.X.X...) H s a a a a a a >.c.H.h.q.} ....} ) P P { +.Q.)._._._.(.!.$.} ",
"| H n v s B P ) ) I P P P P P P P P K M s v H H H H H 3.F.K.n.#.I ..} ..} I I X.-.~._._._.`.(.!.*.} ",
"S v B C S S ( ( P M s s s s s s s v s a a M P ) ) ) ) e.G.J.f.Q H } ..X.....%.j.^./._._._._.(.!.$.I ",
"b v B C S D K K M a 2 2 e a e e a e e 2 a s P ) }  . .r.m.S.8.U H } X.*.-.-.j.(._._._._._._.(.j.X.J ",
"B C C S D S S B a 9 - : * * 9 e 3 2 : - : r s P )  . .$.e.e./ B H } -.!.~.^.(.)._._._._._._.).v.O.b ",
"S S S J H D s a > = O o = = > e 3 2 : - > 9 a S )  . ..... .P H P ..j.^._._._._._._._._._._.(.Q.O.M ",
"C S Z J ( P s 9 # O o O = 9 2 3 e 3 2 2 2 3 a S )  . . . . .) ) ) ..j.(._._._._._._._._._._._.Q.+.L ",
"F F S J ) ) D 9 . O # : ; 2 a a a a e a a e a M I  . . .) ) )  ...X.-.!.(.)._.`._._._._._._.).Q.*.O.",
"G G C J ) { C < o O * 9 w e 3 a a e a e a a a D )  ...) ( H (  .....X.-.!.(._._._._._.`._._._.Q.=.e.",
"L J G L ) ( G , O # > e a a a a a 6 a a a a s R @.&.&.) S M P ) ......X.-.!.(.)./.^.^.^.^.^.^.Q.%.b.",
"( I I ( { { G 4 = $ > e e a 3 3 a 3 a a 6 3 s >.h.m.e._ H M P ) ..} } ..%.-.j.j.t.=.=.+.&.-.-.-.X.q.",
"}  .X.X...X.( C e 9 > e a a a a a a e a a s T g.J.G.i._ M s H  ...........X.X.X.{ L B n S L  .....X.",
"} X.*.j.Q.-.-.&.P s e e 6 a a a 3 e a 6 s >.d.Z.U.J.h.E a M P  ... .........} I G x 4 2 t n H I } ..",
") %.!.(.(.(.(.~.q.D a e a a 6 a a 6 6 6 U 8.Z.L.U.Z.6.s 6 s H )  . .} }  .} ) S x 1 : 2 5 d v H ) ..",
"P ..j.)._._._.).j.) s a 3 3 a a 6 a a a E p.S.D.S.d.^ q , a M P P P P P P P S x > % % > 5 5 a S ) ..",
"H } v.)._._._.(.k.X.P s a a s s s s s s ( @.q.w.<.^ i : - ; a s v v v v v v s 2 : # % 2 5 5 m G ) } ",
"M H $.t.Q.t.Q.k.-.$.I K Q 1.6.6.5./ D H H L K S x 1 * O O % 2 t e e 2 4 e e e > O O * w x v S L { ..",
"M m J W W _ W W | } } ( w.M.A.J.S.u.o.S c t e 2 : = # O o % > e 2 : % : > w 3 : O o * r B J ( ) } ..",
"n x a a t e t t n K I _ w.M.J.J.G.u.! v : # # # O O O O O % 2 e 2 % O # > 3 2 > # o * y C ( }  ...} ",
"n t e 5 , : * : w f v S Q 2.s.h.u.] Z 1 & o o o O o O O O * 1 e > % o O : 2 3 : O O * y C I } ....} ",
"S a t t 1 $ + # $ % > w r y Z _ | Z < O O O O # % * * % # % > e 2 : % * > 2 2 > * * < d C L ( } { ( ",
"C m x e : # o O o o $ - > ; a P I n : o O O O * > 2 2 > : # = > > 2 2 2 2 > > 2 2 1 4 t v G K L L K ",
"S B v t 2 < # + O O O $ # $ r K I B > O O O % > e e e 2 : # O & > 2 e 3 2 : : > 4 e 5 e t v C G F J ",
"n C n c f r 1 & o O O o o # r K ( S 4 % # * 1 4 e t 4 > * O O # : : 2 > : # % : 1 1 1 1 2 d n n S [ ",
"Q Y F C C b r < $ O O O o O r H L H x 4 1 1 5 e 5 4 - $ # + O + $ % * $ $ # O $ $ % $ * < h Y Q ' 0.",
"x.0.] S M n c r 9 & o O o # < b H G H G C b y e 4 , % # O O O + * : : + o o o o o   X - h >.s.l.x.D.",
"L.F.9.Q R R F B r : # O O O & : d F I | I G x 4 < $ # O O O O $ , 4 2 * $ $ $ $ & 8 p h ^ l.J.I.I.Y.",
"W.L.c.l.l.0.<.J x e : =   O o o < c J K K G v t : O o O O O O & 2 y d d 1 2 2 1 j :.4.a.l.F.T.E.W.W.",
"W.E.L.L.P.F.l.' F V h 0 7 # # @ * 1 d d d c b d < O o O O O O * r b C b V Z V F ` z.A.P.P.U.E.W.W.W.",
"W.W.W.W.W.T.D.f.7.8.6.4.;.j 1 > 1 1 9 9 q f C c < O . . . o - , x n n S Q 3.7.9.l.J.T.W.E.E.E.W.W.'.",
"'.'.'.'.W.E.I.J.J.J.J.Z.z.,.Z c f V b b c b C f 1 + + + @ < d f C Z S R 3.c.J.J.P.U.W.W.'.'.'.'.'.'.",
"'.'.'.'.'.W.E.E.E.E.W.R.J.x.3.2.1.Q S C C S C c r g z l ;.:.,.2.3.2.3.7.x.P.R.E.E.E.W.'.'.'.'.'.'.'.",
"'.'.'.'.'.'.'.'.W.W.W.W.R.P.G.F.c.7.R M S S C b V ` z.c.B.B.B.Z.Z.F.F.F.P.T.W.W.W.W.'.'.'.'.'.'.'.'.",
"'.'.'.'.'.'.'.'.'.W.W.W.R.R.R.R.L.c.3.[ ] 1.[ ] ] l.Z.Y.R.R.R.R.R.Y.T.R.T.W.W.W.W.'.'.'.'.'.'.'.'.'."
};
